<?xml version="1.0" encoding="UTF-8" standalone="no"?>
<svg
   width="160"
   height="160"
   fill="none"
   version="1.1"
   id="svg23"
   xmlns="http://www.w3.org/2000/svg"
   xmlns:svg="http://www.w3.org/2000/svg">
  <g
     id="g23"
     transform="translate(16,16)">
    <circle
       cx="64"
       cy="64"
       r="64"
       fill="#c7f0ff"
       id="circle1" />
    <path
       d="M 43.1429,74.2858 38,64.0001 43.1429,53.7144 h 12 l 5.1428,10.2857 -5.1428,10.2857 z"
       stroke="url(#paint0_linear)"
       stroke-width="3"
       stroke-miterlimit="10"
       stroke-linecap="round"
       id="path1"
       style="stroke:url(#paint0_linear)" />
    <path
       d="M 67.1429,87.9999 62,77.7142 67.1429,67.4285 h 12 l 5.1428,10.2857 -5.1428,10.2857 z"
       stroke="url(#paint1_linear)"
       stroke-width="3"
       stroke-miterlimit="10"
       stroke-linecap="round"
       id="path2"
       style="stroke:url(#paint1_linear)" />
    <path
       d="M 67.1429,60.5714 62,50.2857 67.1429,40 h 12 l 5.1428,10.2857 -5.1428,10.2857 z"
       stroke="url(#paint2_linear)"
       stroke-width="3"
       stroke-miterlimit="10"
       stroke-linecap="round"
       id="path3"
       style="stroke:url(#paint2_linear)" />
    <path
       d="m 87.7143,65.7142 c 0.9468,0 1.7143,-0.7675 1.7143,-1.7143 0,-0.9467 -0.7675,-1.7143 -1.7143,-1.7143 -0.9468,0 -1.7143,0.7676 -1.7143,1.7143 0,0.9468 0.7675,1.7143 1.7143,1.7143 z"
       stroke="url(#paint3_linear)"
       stroke-width="3"
       stroke-miterlimit="10"
       stroke-linecap="round"
       id="path4"
       style="stroke:url(#paint3_linear)" />
    <path
       d="m 53.4285,84.5711 c 0.9468,0 1.7143,-0.7675 1.7143,-1.7142 0,-0.9468 -0.7675,-1.7143 -1.7143,-1.7143 -0.9468,0 -1.7143,0.7675 -1.7143,1.7143 0,0.9467 0.7675,1.7142 1.7143,1.7142 z"
       stroke="url(#paint4_linear)"
       stroke-width="3"
       stroke-miterlimit="10"
       stroke-linecap="round"
       id="path5"
       style="stroke:url(#paint4_linear)" />
    <path
       d="m 53.4285,46.857 c 0.9468,0 1.7143,-0.7675 1.7143,-1.7142 0,-0.9468 -0.7675,-1.7143 -1.7143,-1.7143 -0.9468,0 -1.7143,0.7675 -1.7143,1.7143 0,0.9467 0.7675,1.7142 1.7143,1.7142 z"
       stroke="url(#paint5_linear)"
       stroke-width="3"
       stroke-miterlimit="10"
       stroke-linecap="round"
       id="path6"
       style="stroke:url(#paint5_linear)" />
    <path
       d="m 23.2,84.08 c -1.28,0 -2.3867,-0.0933 -3.32,-0.28 -0.9333,-0.16 -1.7067,-0.4533 -2.32,-0.88 -0.6133,-0.4267 -1.0667,-1 -1.36,-1.72 -0.2933,-0.6933 -0.44,-1.5733 -0.44,-2.64 0,-0.72 0.0133,-1.3733 0.04,-1.96 0.0533,-0.6133 0.1067,-1.2 0.16,-1.76 0.0533,-0.56 0.0933,-1.12 0.12,-1.68 0.0533,-0.5867 0.08,-1.2133 0.08,-1.88 0,-0.3467 -0.08,-0.6933 -0.24,-1.04 -0.16,-0.3733 -0.4533,-0.6933 -0.88,-0.96 -0.4267,-0.2933 -1.0133,-0.5333 -1.76,-0.72 -0.72,-0.1867 -1.64,-0.28 -2.76,-0.28 v -2.8 c 1.12,0 2.04,-0.0933 2.76,-0.28 0.7467,-0.1867 1.3333,-0.4133 1.76,-0.68 0.4267,-0.2933 0.72,-0.6133 0.88,-0.96 0.16,-0.3467 0.24,-0.7067 0.24,-1.08 0,-1.2533 -0.0667,-2.4267 -0.2,-3.52 -0.1333,-1.12 -0.2,-2.3733 -0.2,-3.76 0,-1.0667 0.1467,-1.9467 0.44,-2.64 0.2933,-0.72 0.7467,-1.2933 1.36,-1.72 0.6133,-0.4267 1.3867,-0.72 2.32,-0.88 0.9333,-0.1867 2.04,-0.28 3.32,-0.28 h 2.76 v 2.52 h -1.84 c -0.9333,0 -1.6933,0.0533 -2.28,0.16 -0.5867,0.1067 -1.0533,0.2933 -1.4,0.56 -0.32,0.24 -0.5467,0.5733 -0.68,1 -0.1067,0.4 -0.16,0.8933 -0.16,1.48 0,1.12 0.0267,2.24 0.08,3.36 0.08,1.12 0.12,2.2933 0.12,3.52 0,1.4133 -0.28,2.4667 -0.84,3.16 -0.56,0.6667 -1.5467,1.12 -2.96,1.36 v 0.16 c 1.4133,0.24 2.4,0.7067 2.96,1.4 0.56,0.6667 0.84,1.7067 0.84,3.12 0,1.28 -0.04,2.4533 -0.12,3.52 -0.0533,1.0667 -0.08,2.1867 -0.08,3.36 0,0.6133 0.0533,1.12 0.16,1.52 0.1333,0.4 0.36,0.72 0.68,0.96 0.3467,0.2667 0.8133,0.4533 1.4,0.56 0.5867,0.1067 1.3467,0.16 2.28,0.16 h 1.84 v 2.52 z"
       fill="url(#paint6_linear)"
       id="path7"
       style="fill:url(#paint6_linear)" />
    <path
       d="m 104.8,84.08 c 1.28,0 2.387,-0.0933 3.32,-0.28 0.933,-0.16 1.707,-0.4533 2.32,-0.88 0.613,-0.4267 1.067,-1 1.36,-1.72 0.293,-0.6933 0.44,-1.5733 0.44,-2.64 0,-0.72 -0.013,-1.3733 -0.04,-1.96 -0.053,-0.6133 -0.107,-1.2 -0.16,-1.76 -0.053,-0.56 -0.093,-1.12 -0.12,-1.68 -0.053,-0.5867 -0.08,-1.2133 -0.08,-1.88 0,-0.3467 0.08,-0.6933 0.24,-1.04 0.16,-0.3733 0.453,-0.6933 0.88,-0.96 0.427,-0.2933 1.013,-0.5333 1.76,-0.72 0.72,-0.1867 1.64,-0.28 2.76,-0.28 v -2.8 c -1.12,0 -2.04,-0.0933 -2.76,-0.28 -0.747,-0.1867 -1.333,-0.4133 -1.76,-0.68 -0.427,-0.2933 -0.72,-0.6133 -0.88,-0.96 -0.16,-0.3467 -0.24,-0.7067 -0.24,-1.08 0,-1.2533 0.067,-2.4267 0.2,-3.52 0.133,-1.12 0.2,-2.3733 0.2,-3.76 0,-1.0667 -0.147,-1.9467 -0.44,-2.64 -0.293,-0.72 -0.747,-1.2933 -1.36,-1.72 -0.613,-0.4267 -1.387,-0.72 -2.32,-0.88 -0.933,-0.1867 -2.04,-0.28 -3.32,-0.28 h -2.76 v 2.52 h 1.84 c 0.933,0 1.693,0.0533 2.28,0.16 0.587,0.1067 1.053,0.2933 1.4,0.56 0.32,0.24 0.547,0.5733 0.68,1 0.107,0.4 0.16,0.8933 0.16,1.48 0,1.12 -0.027,2.24 -0.08,3.36 -0.08,1.12 -0.12,2.2933 -0.12,3.52 0,1.4133 0.28,2.4667 0.84,3.16 0.56,0.6667 1.547,1.12 2.96,1.36 v 0.16 c -1.413,0.24 -2.4,0.7067 -2.96,1.4 -0.56,0.6667 -0.84,1.7067 -0.84,3.12 0,1.28 0.04,2.4533 0.12,3.52 0.053,1.0667 0.08,2.1867 0.08,3.36 0,0.6133 -0.053,1.12 -0.16,1.52 -0.133,0.4 -0.36,0.72 -0.68,0.96 -0.347,0.2667 -0.813,0.4533 -1.4,0.56 -0.587,0.1067 -1.347,0.16 -2.28,0.16 h -1.84 v 2.52 z"
       fill="url(#paint7_linear)"
       id="path8"
       style="fill:url(#paint7_linear)" />
  </g>
  <defs
     id="defs23">
    <linearGradient
       id="paint0_linear"
       x1="49.142899"
       y1="53.714401"
       x2="49.142899"
       y2="74.285797"
       gradientUnits="userSpaceOnUse">
      <stop
         stop-color="#20F"
         id="stop8" />
      <stop
         offset="1"
         stop-color="#9E00FF"
         id="stop9" />
    </linearGradient>
    <linearGradient
       id="paint1_linear"
       x1="73.142899"
       y1="67.428497"
       x2="73.142899"
       y2="87.999901"
       gradientUnits="userSpaceOnUse">
      <stop
         stop-color="#20F"
         id="stop10" />
      <stop
         offset="1"
         stop-color="#9E00FF"
         id="stop11" />
    </linearGradient>
    <linearGradient
       id="paint2_linear"
       x1="73.142899"
       y1="40"
       x2="73.142899"
       y2="60.5714"
       gradientUnits="userSpaceOnUse">
      <stop
         stop-color="#20F"
         id="stop12" />
      <stop
         offset="1"
         stop-color="#9E00FF"
         id="stop13" />
    </linearGradient>
    <linearGradient
       id="paint3_linear"
       x1="87.714302"
       y1="62.285599"
       x2="87.714302"
       y2="65.714203"
       gradientUnits="userSpaceOnUse">
      <stop
         stop-color="#20F"
         id="stop14" />
      <stop
         offset="1"
         stop-color="#9E00FF"
         id="stop15" />
    </linearGradient>
    <linearGradient
       id="paint4_linear"
       x1="53.428501"
       y1="81.142601"
       x2="53.428501"
       y2="84.571098"
       gradientUnits="userSpaceOnUse">
      <stop
         stop-color="#20F"
         id="stop16" />
      <stop
         offset="1"
         stop-color="#9E00FF"
         id="stop17" />
    </linearGradient>
    <linearGradient
       id="paint5_linear"
       x1="53.428501"
       y1="43.428501"
       x2="53.428501"
       y2="46.856998"
       gradientUnits="userSpaceOnUse">
      <stop
         stop-color="#20F"
         id="stop18" />
      <stop
         offset="1"
         stop-color="#9E00FF"
         id="stop19" />
    </linearGradient>
    <linearGradient
       id="paint6_linear"
       x1="18"
       y1="30"
       x2="18"
       y2="98"
       gradientUnits="userSpaceOnUse">
      <stop
         stop-color="#20F"
         id="stop20" />
      <stop
         offset="1"
         stop-color="#9E00FF"
         id="stop21" />
    </linearGradient>
    <linearGradient
       id="paint7_linear"
       x1="110"
       y1="30"
       x2="110"
       y2="98"
       gradientUnits="userSpaceOnUse">
      <stop
         stop-color="#20F"
         id="stop22" />
      <stop
         offset="1"
         stop-color="#9E00FF"
         id="stop23" />
    </linearGradient>
  </defs>
</svg>
