<?xml version="1.0" encoding="UTF-8" standalone="no"?>
<svg
   width="160"
   height="160"
   viewBox="0 0 160 160"
   fill="none"
   version="1.1"
   id="svg12"
   xmlns="http://www.w3.org/2000/svg"
   xmlns:svg="http://www.w3.org/2000/svg">
  <defs
     id="defs12" />
  <g
     id="g12"
     transform="matrix(1.5961671,0,0,1.5961671,14.557309,14.557309)">
    <path
       d="m 1.3999,40.9999 c 0,10.5026 4.17213,20.575 11.5986,28.0014 7.4264,7.4265 17.4988,11.5986 28.0014,11.5986 10.5026,0 20.575,-4.1721 28.0014,-11.5986 7.4265,-7.4264 11.5986,-17.4988 11.5986,-28.0014 0,-5.2003 -1.0243,-10.3498 -3.0144,-15.1543 C 75.5954,21.0411 72.6785,16.6757 69.0013,12.9985 65.3241,9.32127 60.9587,6.40436 56.1542,4.41427 51.3497,2.42419 46.2002,1.3999 40.9999,1.3999 35.7996,1.3999 30.6501,2.42419 25.8456,4.41427 21.0411,6.40436 16.6757,9.32127 12.9985,12.9985 9.32127,16.6757 6.40436,21.0411 4.41427,25.8456 2.42419,30.6501 1.3999,35.7996 1.3999,40.9999 Z"
       fill="#daedf7"
       stroke="#daedf7"
       id="path1" />
    <path
       d="m 67.7043,39.9663 c 0,1.493 -2.1691,2.8641 -5.7895,3.9482 -5.1098,1.349 -10.3589,2.1008 -15.642,2.2403 -7.5181,0.3396 -17.721,-0.0732 -24.9599,-2.0968 -3.9273,-1.1048 -6.2904,-2.5374 -6.2904,-4.0917 0,-1.3711 1.8305,-2.6393 4.9302,-3.6729 4.1738,-1.3909 10.6593,-2.3522 18.1061,-2.574 1.1009,-0.0328 2.2022,-0.0499 3.3036,-0.0514 1.0128,0 2.0057,0.0099 2.9878,0.0406 7.8557,0.2148 14.6688,1.2483 18.8724,2.7413 2.8344,1.0098 4.4817,2.2166 4.4817,3.5164 z"
       fill="#915e3a"
       stroke="#45413c"
       stroke-linecap="round"
       stroke-linejoin="round"
       id="path2" />
    <path
       d="m 63.2237,36.4459 c 0.0109,0.1643 0.0109,0.3376 0.0109,0.5019 0.0363,2.3873 -0.4126,4.7571 -1.3196,6.9656 -5.1099,1.349 -10.359,2.1008 -15.642,2.2404 -1.584,0.0713 -3.2324,0.1129 -4.9104,0.1129 -0.3069,0 -0.6237,0 -0.9306,-0.0099 -1.7889,-2.7672 -2.6948,-6.0125 -2.5978,-9.306 0.0057,-3.198 0.6523,-6.3623 1.9018,-9.306 2.2413,-5.3094 6.237,-9.2981 10.8029,-9.2981 6.8854,-0.005 12.4908,9.0902 12.6848,18.0992 z"
       fill="#ffe3cf"
       id="path3" />
    <path
       d="m 47.6094,22.7721 c 7.623,0 13.9293,9.3782 14.949,19.3238 0.463,-1.6764 0.6909,-3.409 0.6772,-5.148 0,-0.1644 0,-0.3376 -0.0099,-0.502 -0.198,-9.009 -5.7994,-18.1051 -12.6839,-18.1051 -3.8689,0 -7.3329,2.871 -9.6634,6.9795 1.8878,-1.5916 4.2625,-2.4906 6.731,-2.5482 z"
       fill="#fff2d9"
       id="path4" />
    <path
       d="m 63.2237,36.4459 c 0.0109,0.1643 0.0109,0.3376 0.0109,0.5019 0.0363,2.3873 -0.4126,4.7571 -1.3196,6.9656 -5.1099,1.349 -10.359,2.1008 -15.642,2.2404 -1.584,0.0713 -3.2324,0.1129 -4.9104,0.1129 -0.3069,0 -0.6237,0 -0.9306,-0.0099 -1.7889,-2.7672 -2.6948,-6.0125 -2.5978,-9.306 0.0057,-3.198 0.6523,-6.3623 1.9018,-9.306 2.2413,-5.3094 6.237,-9.2981 10.8029,-9.2981 6.8854,-0.005 12.4908,9.0902 12.6848,18.0992 z"
       stroke="#45413c"
       stroke-linecap="round"
       stroke-linejoin="round"
       id="path5" />
    <path
       d="m 46.2736,46.1548 c -1.584,0.0713 -3.2323,0.1128 -4.9104,0.1128 -0.3069,0 -0.6237,0 -0.9306,-0.0099 -6.4394,0.0602 -12.8614,-0.6787 -19.1189,-2.1997 -0.8759,-2.4962 -1.3355,-5.1194 -1.3602,-7.7646 -0.0614,-5.7796 2.0255,-11.0573 6.23,-12.87 4.1739,-1.7899 9.405,0.2554 13.5531,4.2144 1.8487,1.7657 3.4061,3.8129 4.6144,6.0657 0.3168,0.5832 0.6029,1.1762 0.8692,1.782 1.5777,3.3267 1.9501,7.0983 1.0534,10.6693 z"
       fill="#ffe3cf"
       id="path6" />
    <path
       d="m 26.9419,28.1013 c 4.4629,-1.9137 10.0515,0.2732 14.4916,4.5065 1.9764,1.8876 3.6411,4.0766 4.9322,6.4854 l 0.0416,0.0763 c -0.2754,-1.2636 -0.6733,-2.4974 -1.188,-3.6838 -0.2655,-0.6057 -0.5558,-1.2002 -0.8702,-1.782 -1.2077,-2.253 -2.7648,-4.3003 -4.6134,-6.0657 -4.1521,-3.96 -9.3803,-6.0044 -13.5531,-4.2145 -4.2046,1.8107 -6.2915,7.0884 -6.2301,12.87 0.0117,1.3278 0.1336,2.6524 0.3643,3.96 0.3079,-5.5321 2.5245,-10.3851 6.6251,-12.1522 z"
       fill="#fff2d9"
       id="path7" />
    <path
       d="m 46.2736,46.1548 c -1.584,0.0713 -3.2323,0.1128 -4.9104,0.1128 -0.3069,0 -0.6237,0 -0.9306,-0.0099 -6.4394,0.0602 -12.8614,-0.6787 -19.1189,-2.1997 -0.8759,-2.4962 -1.3355,-5.1194 -1.3602,-7.7646 -0.0614,-5.7796 2.0255,-11.0573 6.23,-12.87 4.1739,-1.7899 9.405,0.2554 13.5531,4.2144 1.8487,1.7657 3.4061,3.8129 4.6144,6.0657 0.3168,0.5832 0.6029,1.1762 0.8692,1.782 1.5777,3.3267 1.9501,7.0983 1.0534,10.6693 z"
       stroke="#45413c"
       stroke-linecap="round"
       stroke-linejoin="round"
       id="path8" />
    <path
       d="m 78.7257,43.267 c 0.0393,0.0188 0.0832,0.0255 0.1264,0.0194 0.0431,-0.0061 0.0834,-0.0249 0.1159,-0.0539 0.0325,-0.029 0.0557,-0.0669 0.0666,-0.109 0.011,-0.0422 0.0093,-0.0866 -0.005,-0.1278 -1.5087,-4.3748 -4.2213,-5.9033 -6.0013,-6.5142 -2.1553,-1.6196 -5.7203,-3.0294 -10.2485,-4.1065 0.2698,1.3426 0.4192,2.7067 0.4465,4.0758 2.8343,1.0138 4.4867,2.2196 4.4867,3.5106 0,1.4949 -2.1711,2.871 -5.7896,3.96 -0.0841,0.0237 -0.1683,0.0475 -0.2653,0.0722 0.0234,-1.0391 -0.3087,-2.0552 -0.9415,-2.8799 -0.0552,-0.076 -0.1291,-0.1365 -0.2145,-0.1755 -0.0854,-0.0391 -0.1795,-0.0554 -0.2731,-0.0475 -0.0936,0.008 -0.1836,0.04 -0.2612,0.093 -0.0776,0.0529 -0.1402,0.125 -0.1818,0.2092 -0.8386,1.4426 -1.8771,2.7592 -3.0848,3.9105 -0.2772,0.0476 -0.5544,0.0842 -0.8445,0.1327 0.2276,-0.8612 0.2018,-1.7697 -0.0742,-2.6166 -0.0271,-0.0898 -0.0769,-0.1712 -0.1445,-0.2362 -0.0677,-0.065 -0.151,-0.1114 -0.2419,-0.1348 -0.0909,-0.0234 -0.1863,-0.023 -0.2769,0.0013 -0.0907,0.0242 -0.1735,0.0714 -0.2406,0.1371 -1.9387,1.5657 -4.1222,2.8013 -6.4627,3.657 -3.6373,0.2505 -7.2122,0.2287 -7.2854,0.2287 -3.0364,0 -7.4775,-0.2405 -8.8893,-0.396 H 32.169 c -0.0032,0 -0.0062,-0.0012 -0.0084,-0.0035 -0.0023,-0.0022 -0.0035,-0.0052 -0.0035,-0.0084 -1.505,-1.2165 -2.7505,-2.7227 -3.663,-4.4292 -0.0485,-0.0977 -0.1252,-0.1786 -0.2202,-0.2322 -0.095,-0.0536 -0.2038,-0.0776 -0.3125,-0.0687 -0.1087,0.0088 -0.2123,0.05 -0.2973,0.1183 -0.0851,0.0683 -0.1477,0.1605 -0.1798,0.2648 -0.3932,1.229 -0.4276,2.5448 -0.099,3.7926 -0.2772,-0.0366 -0.5544,-0.0851 -0.8316,-0.1207 -0.0032,0 -0.0062,-0.0013 -0.0084,-0.0035 -0.0022,-0.0022 -0.0035,-0.0053 -0.0035,-0.0084 -1.954,-1.1704 -3.6844,-2.6789 -5.1104,-4.455 -0.0559,-0.0796 -0.1321,-0.1428 -0.2207,-0.1832 -0.0885,-0.0403 -0.1863,-0.0562 -0.283,-0.0461 -0.0968,0.0101 -0.1892,0.0458 -0.2675,0.1035 -0.0783,0.0578 -0.1398,0.1353 -0.1782,0.2248 l -0.0317,0.0762 c -0.3651,0.889 -0.4681,1.8639 -0.297,2.8096 -3.2204,-1.0494 -5.1143,-2.3393 -5.1143,-3.7382 0,-1.3632 1.8335,-2.6294 4.9332,-3.663 -0.0195,-1.3295 0.0856,-2.658 0.3138,-3.9679 -7.8042,1.8087 -12.79673,4.6193 -12.79673,7.7546 -0.01695,2.7025 0.39951,5.3901 1.23354,7.9606 -0.73224,1.7391 -0.97827,3.6444 -0.71181,5.5124 0.01306,0.1036 0.05561,0.2014 0.1226,0.2815 0.06699,0.0802 0.1556,0.1395 0.25528,0.1708 0.09969,0.0312 0.20627,0.0332 0.30706,0.0057 0.10079,-0.0275 0.19155,-0.0834 0.2615,-0.161 0.2079,-0.2287 0.4257,-0.4515 0.63162,-0.6525 0.07714,-0.0753 0.17488,-0.1261 0.28088,-0.1459 0.106,-0.0199 0.21546,-0.0078 0.31466,0.0345 0.0992,0.0424 0.1835,0.1132 0.2425,0.2036 0.0589,0.0903 0.0897,0.196 0.0886,0.3038 -0.0099,1.98 0.495,5.6599 4.1075,7.2894 0.0017,-0.2011 0.0705,-0.3959 0.1955,-0.5534 0.125,-0.1576 0.2991,-0.2689 0.4945,-0.3163 0.1955,-0.0474 0.4011,-0.0282 0.5844,0.0546 0.1833,0.0827 0.3337,0.2243 0.4274,0.4023 0.9876,1.7861 2.359,3.331 4.0155,4.5233 0.1316,0.0999 0.2881,0.1616 0.4525,0.1786 0.1644,0.0169 0.3302,-0.0116 0.4795,-0.0825 0.1492,-0.0709 0.2761,-0.1814 0.3668,-0.3195 0.0908,-0.1382 0.1418,-0.2985 0.1475,-0.4637 0.0065,-0.179 0.0571,-0.3538 0.1473,-0.5086 0.0902,-0.1549 0.2172,-0.2851 0.3698,-0.3791 0.1525,-0.094 0.3259,-0.1489 0.5048,-0.1598 0.1789,-0.011 0.3577,0.0224 0.5206,0.0971 15.6736,7.1954 38.6258,4.0115 47.9051,-9.5158 0.1028,-0.1497 0.2414,-0.2713 0.4032,-0.3537 0.1619,-0.0824 0.3417,-0.1231 0.5232,-0.1182 0.1816,0.0048 0.359,0.0549 0.5162,0.1458 0.1572,0.0909 0.2892,0.2197 0.3839,0.3746 0.0482,0.0787 0.1184,0.1415 0.2019,0.1806 0.0835,0.0392 0.1767,0.053 0.2679,0.0397 0.0913,-0.0132 0.1767,-0.053 0.2456,-0.1144 0.0689,-0.0613 0.1182,-0.1415 0.142,-0.2307 0.5241,-1.7881 0.5628,-3.6835 0.1118,-5.4915 l 0.0139,-0.0426 c 0.0102,-0.0303 0.0279,-0.0577 0.0515,-0.0795 0.0235,-0.0218 0.0521,-0.0373 0.0831,-0.0452 0.0313,-0.0077 0.0639,-0.0077 0.0951,10e-5 0.0313,0.0078 0.0601,0.023 0.0841,0.0444 0.5932,0.546 1.1047,1.1745 1.5187,1.8662 0.0479,0.0787 0.1179,0.1416 0.2012,0.181 0.0833,0.0394 0.1763,0.0535 0.2676,0.0405 0.0912,-0.013 0.1766,-0.0524 0.2457,-0.1134 0.0691,-0.061 0.1187,-0.1409 0.1428,-0.2299 0.748,-2.3236 0.5838,-4.8448 -0.4593,-7.0518 -0.0176,-0.0368 -0.0247,-0.0778 -0.0205,-0.1184 0.0042,-0.0406 0.0195,-0.0793 0.0443,-0.1117 0.0248,-0.0325 0.058,-0.0575 0.0961,-0.0722 0.0381,-0.0148 0.0795,-0.0188 0.1196,-0.0115 0.7655,0.1456 1.5088,0.3895 2.2117,0.7257 z"
       fill="#b89558"
       id="path9" />
    <path
       opacity="0.15"
       d="m 20.5464,68.3727 c 0,0.4994 2.2468,0.9784 6.2461,1.3315 3.9993,0.3531 9.4236,0.5515 15.0795,0.5515 5.6559,0 11.0801,-0.1984 15.0794,-0.5515 3.9994,-0.3531 6.2462,-0.8321 6.2462,-1.3315 0,-0.4994 -2.2468,-0.9783 -6.2462,-1.3314 -3.9993,-0.3532 -9.4235,-0.5516 -15.0794,-0.5516 -5.6559,0 -11.0802,0.1984 -15.0795,0.5516 -3.9993,0.3531 -6.2461,0.832 -6.2461,1.3314 z"
       fill="#45413c"
       id="path10" />
    <path
       d="m 78.7259,43.2673 c 0.0393,0.0188 0.0832,0.0255 0.1263,0.0194 0.0431,-0.0061 0.0835,-0.0249 0.116,-0.0538 0.0324,-0.029 0.0556,-0.067 0.0666,-0.1091 0.011,-0.0422 0.0092,-0.0866 -0.005,-0.1278 -0.5086,-1.6184 -1.3841,-3.0976 -2.5581,-4.3223 -3.2819,8.7288 -15.8767,19.701 -33.1354,20.4029 -2.574,0.1059 -30.8662,1.2642 -35.28157,-20.8256 -0.36631,0.5411 -0.5672,1.1771 -0.57816,1.8305 -0.01695,2.7024 0.39952,5.39 1.23354,7.9606 -0.73224,1.739 -0.97827,3.6443 -0.71181,5.5123 0.01249,0.1039 0.05456,0.2021 0.12122,0.2828 0.06665,0.0807 0.15508,0.1405 0.25476,0.1725 0.09969,0.0319 0.20645,0.0345 0.30758,0.0075 0.10112,-0.027 0.19237,-0.0825 0.26288,-0.1599 0.2079,-0.2296 0.4257,-0.4514 0.63162,-0.6534 0.07714,-0.0753 0.17488,-0.1261 0.28088,-0.1459 0.106,-0.0199 0.21546,-0.0078 0.31466,0.0345 0.0992,0.0424 0.1835,0.1132 0.2425,0.2035 0.0589,0.0904 0.0897,0.1961 0.0886,0.3039 -0.0099,1.98 0.495,5.6599 4.1075,7.2894 v -0.0049 c 0.0019,-0.2011 0.0709,-0.3957 0.196,-0.5531 0.1251,-0.1574 0.2991,-0.2685 0.4945,-0.3158 0.1954,-0.0473 0.401,-0.028 0.5842,0.0548 0.1832,0.0828 0.3335,0.2243 0.4271,0.4022 0.9872,1.7864 2.3587,3.3313 4.0155,4.5233 0.1315,0.0998 0.288,0.1616 0.4523,0.1786 0.1643,0.017 0.33,-0.0115 0.4793,-0.0822 0.1492,-0.0708 0.2761,-0.1812 0.3669,-0.3192 0.0908,-0.138 0.1419,-0.2982 0.1479,-0.4632 0.0063,-0.1792 0.0567,-0.3541 0.1469,-0.509 0.0901,-0.155 0.2171,-0.2854 0.3697,-0.3795 0.1526,-0.0941 0.326,-0.1491 0.505,-0.1601 0.1789,-0.011 0.3578,0.0224 0.5208,0.0972 15.6737,7.1953 38.6258,4.0114 47.9051,-9.5149 0.1028,-0.1497 0.2414,-0.2713 0.4033,-0.3537 0.1618,-0.0824 0.3416,-0.123 0.5231,-0.1182 0.1816,0.0048 0.359,0.0549 0.5162,0.1458 0.1572,0.0909 0.2892,0.2197 0.3839,0.3746 0.0482,0.0787 0.1184,0.1415 0.2019,0.1807 0.0835,0.0391 0.1767,0.0529 0.2679,0.0397 0.0913,-0.0133 0.1767,-0.0531 0.2456,-0.1145 0.0689,-0.0613 0.1182,-0.1415 0.142,-0.2307 0.5243,-1.7884 0.5629,-3.6842 0.1118,-5.4925 0.0115,-0.0351 0.0316,-0.0668 0.0585,-0.0922 0.0269,-0.0254 0.0598,-0.0436 0.0955,-0.0529 0.0358,-0.0094 0.0734,-0.0096 0.1093,-7e-4 0.0358,0.0089 0.0689,0.0267 0.0961,0.0518 0.579,0.5396 1.0789,1.1582 1.485,1.8374 0.0479,0.0787 0.1179,0.1417 0.2012,0.181 0.0833,0.0394 0.1764,0.0535 0.2676,0.0405 0.0912,-0.0129 0.1767,-0.0524 0.2457,-0.1134 0.0691,-0.061 0.1187,-0.1409 0.1429,-0.2299 0.7478,-2.3236 0.5836,-4.8447 -0.4594,-7.0517 -0.0176,-0.0369 -0.0247,-0.0779 -0.0205,-0.1185 0.0042,-0.0406 0.0195,-0.0792 0.0443,-0.1117 0.0248,-0.0325 0.058,-0.0574 0.0961,-0.0722 0.0381,-0.0148 0.0795,-0.0187 0.1197,-0.0115 0.7709,0.148 1.5194,0.3956 2.2265,0.7366 z"
       fill="#947746"
       id="path11" />
    <path
       d="m 78.7257,43.267 c 0.0393,0.0188 0.0832,0.0255 0.1264,0.0194 0.0431,-0.0061 0.0834,-0.0249 0.1159,-0.0539 0.0325,-0.029 0.0557,-0.0669 0.0666,-0.109 0.011,-0.0422 0.0093,-0.0866 -0.005,-0.1278 -1.5087,-4.3748 -4.2213,-5.9033 -6.0013,-6.5142 -2.1553,-1.6196 -5.7203,-3.0294 -10.2485,-4.1065 0.2698,1.3426 0.4192,2.7067 0.4465,4.0758 2.8343,1.0138 4.4867,2.2196 4.4867,3.5106 0,1.4949 -2.1711,2.871 -5.7896,3.96 -0.0841,0.0237 -0.1683,0.0475 -0.2653,0.0722 0.0234,-1.0391 -0.3087,-2.0552 -0.9415,-2.8799 -0.0552,-0.076 -0.1291,-0.1365 -0.2145,-0.1755 -0.0854,-0.0391 -0.1795,-0.0554 -0.2731,-0.0475 -0.0936,0.008 -0.1836,0.04 -0.2612,0.093 -0.0776,0.0529 -0.1402,0.125 -0.1818,0.2092 -0.8386,1.4426 -1.8771,2.7592 -3.0848,3.9105 -0.2772,0.0476 -0.5544,0.0842 -0.8445,0.1327 0.2276,-0.8612 0.2018,-1.7697 -0.0742,-2.6166 -0.0271,-0.0898 -0.0769,-0.1712 -0.1445,-0.2362 -0.0677,-0.065 -0.151,-0.1114 -0.2419,-0.1348 -0.0909,-0.0234 -0.1863,-0.023 -0.2769,0.0013 -0.0907,0.0242 -0.1735,0.0714 -0.2406,0.1371 -1.9387,1.5657 -4.1222,2.8013 -6.4627,3.657 -3.6373,0.2505 -7.2122,0.2287 -7.2854,0.2287 -3.0364,0 -7.4775,-0.2405 -8.8893,-0.396 H 32.169 c -0.0032,0 -0.0062,-0.0012 -0.0084,-0.0035 -0.0023,-0.0022 -0.0035,-0.0052 -0.0035,-0.0084 -1.505,-1.2165 -2.7505,-2.7227 -3.663,-4.4292 -0.0485,-0.0977 -0.1252,-0.1786 -0.2202,-0.2322 -0.095,-0.0536 -0.2038,-0.0776 -0.3125,-0.0687 -0.1087,0.0088 -0.2123,0.05 -0.2973,0.1183 -0.0851,0.0683 -0.1477,0.1605 -0.1798,0.2648 -0.3932,1.229 -0.4276,2.5448 -0.099,3.7926 -0.2772,-0.0366 -0.5544,-0.0851 -0.8316,-0.1207 -0.0032,0 -0.0062,-0.0013 -0.0084,-0.0035 -0.0022,-0.0022 -0.0035,-0.0053 -0.0035,-0.0084 -1.954,-1.1704 -3.6844,-2.6789 -5.1104,-4.455 -0.0559,-0.0796 -0.1321,-0.1428 -0.2207,-0.1832 -0.0885,-0.0403 -0.1863,-0.0562 -0.283,-0.0461 -0.0968,0.0101 -0.1892,0.0458 -0.2675,0.1035 -0.0783,0.0578 -0.1398,0.1353 -0.1782,0.2248 l -0.0317,0.0762 c -0.3651,0.889 -0.4681,1.8639 -0.297,2.8096 -3.2204,-1.0494 -5.1143,-2.3393 -5.1143,-3.7382 0,-1.3632 1.8335,-2.6294 4.9332,-3.663 -0.0195,-1.3295 0.0856,-2.658 0.3138,-3.9679 -7.8042,1.8087 -12.79673,4.6193 -12.79673,7.7546 -0.01695,2.7025 0.39951,5.3901 1.23354,7.9606 -0.73224,1.7391 -0.97827,3.6444 -0.71181,5.5124 0.01306,0.1036 0.05561,0.2014 0.1226,0.2815 0.06699,0.0802 0.1556,0.1395 0.25528,0.1708 0.09969,0.0312 0.20627,0.0332 0.30706,0.0057 0.10079,-0.0275 0.19155,-0.0834 0.2615,-0.161 0.2079,-0.2287 0.4257,-0.4515 0.63162,-0.6525 0.07714,-0.0753 0.17488,-0.1261 0.28088,-0.1459 0.106,-0.0199 0.21546,-0.0078 0.31466,0.0345 0.0992,0.0424 0.1835,0.1132 0.2425,0.2036 0.0589,0.0903 0.0897,0.196 0.0886,0.3038 -0.0099,1.98 0.495,5.6599 4.1075,7.2894 0.0017,-0.2011 0.0705,-0.3959 0.1955,-0.5534 0.125,-0.1576 0.2991,-0.2689 0.4945,-0.3163 0.1955,-0.0474 0.4011,-0.0282 0.5844,0.0546 0.1833,0.0827 0.3337,0.2243 0.4274,0.4023 0.9876,1.7861 2.359,3.331 4.0155,4.5233 0.1316,0.0999 0.2881,0.1616 0.4525,0.1786 0.1644,0.0169 0.3302,-0.0116 0.4795,-0.0825 0.1492,-0.0709 0.2761,-0.1814 0.3668,-0.3195 0.0908,-0.1382 0.1418,-0.2985 0.1475,-0.4637 0.0065,-0.179 0.0571,-0.3538 0.1473,-0.5086 0.0902,-0.1549 0.2172,-0.2851 0.3698,-0.3791 0.1525,-0.094 0.3259,-0.1489 0.5048,-0.1598 0.1789,-0.011 0.3577,0.0224 0.5206,0.0971 15.6736,7.1954 38.6258,4.0115 47.9051,-9.5158 0.1028,-0.1497 0.2414,-0.2713 0.4032,-0.3537 0.1619,-0.0824 0.3417,-0.1231 0.5232,-0.1182 0.1816,0.0048 0.359,0.0549 0.5162,0.1458 0.1572,0.0909 0.2892,0.2197 0.3839,0.3746 0.0482,0.0787 0.1184,0.1415 0.2019,0.1806 0.0835,0.0392 0.1767,0.053 0.2679,0.0397 0.0913,-0.0132 0.1767,-0.053 0.2456,-0.1144 0.0689,-0.0613 0.1182,-0.1415 0.142,-0.2307 0.5241,-1.7881 0.5628,-3.6835 0.1118,-5.4915 l 0.0139,-0.0426 c 0.0102,-0.0303 0.0279,-0.0577 0.0515,-0.0795 0.0235,-0.0218 0.0521,-0.0373 0.0831,-0.0452 0.0313,-0.0077 0.0639,-0.0077 0.0951,10e-5 0.0313,0.0078 0.0601,0.023 0.0841,0.0444 0.5932,0.546 1.1047,1.1745 1.5187,1.8662 0.0479,0.0787 0.1179,0.1416 0.2012,0.181 0.0833,0.0394 0.1763,0.0535 0.2676,0.0405 0.0912,-0.013 0.1766,-0.0524 0.2457,-0.1134 0.0691,-0.061 0.1187,-0.1409 0.1428,-0.2299 0.748,-2.3236 0.5838,-4.8448 -0.4593,-7.0518 -0.0176,-0.0368 -0.0247,-0.0778 -0.0205,-0.1184 0.0042,-0.0406 0.0195,-0.0793 0.0443,-0.1117 0.0248,-0.0325 0.058,-0.0575 0.0961,-0.0722 0.0381,-0.0148 0.0795,-0.0188 0.1196,-0.0115 0.7655,0.1456 1.5088,0.3895 2.2117,0.7257 z"
       stroke="#45413c"
       stroke-linecap="round"
       stroke-linejoin="round"
       id="path12" />
  </g>
</svg>
