<?xml version="1.0" encoding="UTF-8" standalone="no"?>
<svg
   width="160"
   height="160"
   fill="none"
   version="1.1"
   id="svg12"
   xmlns="http://www.w3.org/2000/svg"
   xmlns:svg="http://www.w3.org/2000/svg">
  <g
     id="g12"
     transform="matrix(1.1429696,0,0,1.1429696,15.993702,15.993702)">
    <path
       d="M 0,56 A 56.0003,56.0003 0 0 0 56,112 56.0003,56.0003 0 0 0 112,56 56.0003,56.0003 0 0 0 56,0 56.0003,56.0003 0 0 0 0,56 Z"
       fill="#c7f0ff"
       id="path1" />
    <path
       fill-rule="evenodd"
       clip-rule="evenodd"
       d="m 47.694,36.701 h 2.7833 c 1.062,0 1.923,0.861 1.923,1.9231 0,1.0621 -0.861,1.9231 -1.923,1.9231 h -2.8435 a 1.8853,1.8853 0 0 1 -0.1302,-0.0045 3.4188,3.4188 0 0 0 -3.6335,3.0721 v 4.6428 c 0,0.0174 -3e-4,0.0348 -7e-4,0.0522 a 6.6854,6.6854 0 0 1 -3.523,5.7096 l -3.0712,1.7666 3.0715,1.7649 a 6.692,6.692 0 0 1 3.5226,5.7076 c 5e-4,0.018 8e-4,0.036 8e-4,0.0541 v 4.6465 a 3.4153,3.4153 0 0 0 1.1684,2.2481 3.4152,3.4152 0 0 0 2.4636,0.8203 1.9311,1.9311 0 0 1 0.1317,-0.0045 h 2.8435 c 1.062,0 1.923,0.861 1.923,1.9231 0,1.062 -0.861,1.923 -1.923,1.923 H 47.6947 A 7.2614,7.2614 0 0 1 40.03,68.1966 1.8967,1.8967 0 0 1 40.0239,68.044 v -4.701 a 2.8464,2.8464 0 0 0 -1.5106,-2.4109 1.962,1.962 0 0 1 -0.0569,-0.0315 l -5.9978,-3.4462 a 1.923,1.923 0 0 1 -7e-4,-3.3344 l 5.9977,-3.45 a 1.7915,1.7915 0 0 1 0.0593,-0.0328 2.8384,2.8384 0 0 0 1.509,-2.4091 v -4.6982 c 0,-0.0509 0.002,-0.1018 0.0061,-0.1525 a 7.2646,7.2646 0 0 1 7.664,-6.6764 z"
       fill="url(#paint0_linear)"
       id="path2"
       style="fill:url(#paint0_linear)" />
    <path
       fill-rule="evenodd"
       clip-rule="evenodd"
       d="m 67.2902,41.3641 a 3.4147,3.4147 0 0 0 -2.4644,-0.8212 1.926,1.926 0 0 1 -0.1316,0.0045 h -2.8434 c -1.0621,0 -1.9231,-0.861 -1.9231,-1.9231 0,-1.0621 0.861,-1.9231 1.9231,-1.9231 h 2.7826 a 7.2618,7.2618 0 0 1 5.1691,1.7506 7.2616,7.2616 0 0 1 2.4957,4.9272 c 0.004,0.0503 0.0059,0.1007 0.0059,0.1512 v 4.6982 a 2.8395,2.8395 0 0 0 1.5091,2.4091 c 0.0199,0.0106 0.0397,0.0215 0.0593,0.0327 l 5.9977,3.45 a 1.9232,1.9232 0 0 1 -8e-4,3.3344 l -5.9977,3.4463 a 2.1006,2.1006 0 0 1 -0.0569,0.0314 2.8462,2.8462 0 0 0 -1.5107,2.411 v 4.7009 c 0,0.051 -0.002,0.1019 -0.006,0.1526 a 7.261,7.261 0 0 1 -7.6647,6.6726 h -2.7826 c -1.0621,0 -1.9231,-0.861 -1.9231,-1.9231 0,-1.0621 0.861,-1.9231 1.9231,-1.9231 h 2.8434 c 0.044,0 0.0879,0.0015 0.1317,0.0045 a 3.4147,3.4147 0 0 0 3.6321,-3.0684 v -4.6465 c 0,-0.018 2e-4,-0.036 8e-4,-0.054 a 6.6917,6.6917 0 0 1 3.5225,-5.7076 l 3.0716,-1.7649 -3.0713,-1.7667 a 6.6848,6.6848 0 0 1 -3.5229,-5.7095 1.829,1.829 0 0 1 -7e-4,-0.0523 v -4.6435 a 3.415,3.415 0 0 0 -1.1678,-2.2502 z"
       fill="url(#paint1_linear)"
       id="path3"
       style="fill:url(#paint1_linear)" />
    <path
       d="M 20,76 V 36 h 13.0698 v 2.5581 h -9.4884 v 34.8838 h 9.4884 V 76 Z"
       fill="url(#paint2_linear)"
       id="path4"
       style="fill:url(#paint2_linear)" />
    <path
       d="M 92.3003,76 V 36 H 79.2305 v 2.5581 h 9.4884 V 73.4419 H 79.2305 V 76 Z"
       fill="url(#paint3_linear)"
       id="path5"
       style="fill:url(#paint3_linear)" />
  </g>
  <defs
     id="defs12">
    <linearGradient
       id="paint0_linear"
       x1="41.946999"
       y1="36.688702"
       x2="41.946999"
       y2="74.881699"
       gradientUnits="userSpaceOnUse">
      <stop
         stop-color="#20F"
         id="stop5" />
      <stop
         offset="1"
         stop-color="#9E00FF"
         id="stop6" />
    </linearGradient>
    <linearGradient
       id="paint1_linear"
       x1="70.381104"
       y1="36.688702"
       x2="70.381104"
       y2="74.881897"
       gradientUnits="userSpaceOnUse">
      <stop
         stop-color="#20F"
         id="stop7" />
      <stop
         offset="1"
         stop-color="#9E00FF"
         id="stop8" />
    </linearGradient>
    <linearGradient
       id="paint2_linear"
       x1="26.534901"
       y1="36"
       x2="26.534901"
       y2="76"
       gradientUnits="userSpaceOnUse">
      <stop
         stop-color="#20F"
         id="stop9" />
      <stop
         offset="1"
         stop-color="#9E00FF"
         id="stop10" />
    </linearGradient>
    <linearGradient
       id="paint3_linear"
       x1="85.765404"
       y1="36"
       x2="85.765404"
       y2="76"
       gradientUnits="userSpaceOnUse">
      <stop
         stop-color="#20F"
         id="stop11" />
      <stop
         offset="1"
         stop-color="#9E00FF"
         id="stop12" />
    </linearGradient>
  </defs>
</svg>
