<?xml version="1.0" encoding="UTF-8" standalone="no"?>
<svg
   width="160"
   height="160"
   viewBox="0 0 160 160"
   fill="none"
   version="1.1"
   id="svg1"
   xmlns="http://www.w3.org/2000/svg"
   xmlns:svg="http://www.w3.org/2000/svg">
  <defs
     id="defs1" />
  <path
     d="m 15.2944,80 a 64,64 0 1 0 128,0 64,64 0 1 0 -128,0 z"
     fill="#c7f0ff"
     stroke="#c7f0ff"
     stroke-miterlimit="10"
     id="path1-5"
     style="stroke-width:1.6" />
  <path
     d="M 12.1316,95.5586 C 7.74678,94.3773 3.72298,91.0462 1.66437,86.8933 0.0867174,83.7106 0.0886912,83.7329 0.0849635,69.1054 -0.101943,56.4523 -0.0304751,56.044 0.813013,54.8237 2.60451,51.8361 6.55513,51.1981 9.14532,53.4781 c 1.81858,1.6007 1.96308,2.1443 1.96308,7.382 v 4.5422 h 7.6402 c 4.6734,0 8.0851,0.0954 8.7861,0.2457 3.9871,0.8551 5.5007,5.6232 2.7324,8.6076 -0.3262,0.3517 -0.9982,0.858 -1.4933,1.1251 -0.8689,0.4689 -1.1913,0.4882 -9.2828,0.5546 l -8.3826,0.0688 v 2.0256 c 0,2.9462 0.3056,3.9101 1.6731,5.2777 1.5969,1.5969 2.0232,1.6721 9.5096,1.678 5.8081,0.0043 6.3304,0.0379 7.2703,0.4633 3.5657,1.6141 4.454,5.9117 1.8248,8.828 -1.5369,1.7047 -1.6383,1.7218 -10.1511,1.712 -6.6445,-0.0075 -7.7244,-0.0586 -9.1035,-0.4301 z m 34.0224,0.0967 c -3.462,-0.8389 -7.0349,-3.4692 -9.2188,-6.7866 -2.0125,-3.0571 -2.4047,-5.2082 -2.4151,-13.2427 -0.0089,-6.9288 0.1302,-7.8015 1.4632,-9.1739 1.2337,-1.2704 2.0199,-1.5997 3.8349,-1.6065 1.3861,-0.0054 1.736,0.0825 2.6945,0.6751 0.6821,0.4217 1.361,1.1003 1.7827,1.7819 0.8442,1.4632 0.6894,2.0769 0.7936,8.0954 0.1102,6.85 0.1234,7.0121 0.6401,7.8432 1.7456,2.8076 5.355,3.2214 7.7493,0.8883 1.3823,-1.347 1.5122,-2.1383 1.5122,-9.213 0,-5.8172 0.0262,-6.2088 0.4754,-7.1041 0.9001,-1.7934 2.2051,-2.7427 4.1339,-3.0071 2.064,-0.2829 4.2899,0.9338 5.3563,2.9278 0.4753,0.8887 0.5038,1.2534 0.6111,7.813 -0.0383,5.457 0.2184,7.054 0.7333,7.8181 1.6468,2.4864 5.1083,3.0212 7.2699,1.1233 1.5493,-1.3603 1.5485,-1.3556 1.6759,-8.9586 0.1094,-6.5261 0.1395,-6.9094 0.6111,-7.7958 1.9796,-3.7205 6.9908,-3.955 9.1695,-0.4291 1.4093,1.9538 0.7925,6.0883 0.7925,8.7545 0.1022,3.5085 -0.1036,8.0072 -0.7171,9.3937 -1.669,4.7107 -5.3863,8.4523 -9.8585,9.9227 -2.0287,0.667 -6.4991,0.8271 -8.5133,0.3049 -1.9419,-0.5035 -3.6224,-1.2748 -5.2216,-2.3966 l -1.3426,-0.9417 -1.3423,0.9416 c -1.6233,1.1386 -3.2664,1.9098 -5.0623,2.376 -1.6738,0.4345 -5.8074,0.4324 -7.6078,-0.0038 z m 46.7378,0.0328 c -1.0252,-0.4464 -2.3055,-1.6519 -2.865,-2.6975 -0.4891,-0.914 -0.4931,-1.015 -0.4931,-12.5109 0,-11.0623 0.0201,-11.6298 0.4416,-12.4798 1.7524,-3.5341 6.2772,-4.3295 9.021,-1.5857 1.7067,1.7064 1.7017,1.6641 1.6287,14.4291 -0.063,11.0176 -0.074,11.2425 -0.551,12.126 -0.6286,1.1624 -1.7699,2.2487 -2.8256,2.689 -1.0208,0.4258 -3.4097,0.4421 -4.3566,0.0298 z m 23.6152,-0.1267 c -5.002,-1.3115 -9.357,-5.2635 -11.196,-10.1603 -0.993,-2.6425 -1.071,-3.9887 -0.996,-17.0733 0.07,-12.0688 0.079,-12.2789 0.557,-13.1647 2.383,-4.4172 8.907,-3.858 10.322,0.8848 0.239,0.8001 0.331,2.2539 0.331,5.2113 v 4.1016 l 5.345,0.0814 c 4.942,0.0753 5.412,0.1178 6.245,0.5628 3.911,2.0913 3.929,7.2801 0.032,9.3625 -0.874,0.4669 -1.269,0.5028 -6.295,0.5729 l -5.363,0.0747 0.074,2.6261 c 0.087,3.0647 0.436,3.9832 1.957,5.1488 1.332,1.0209 2.17,1.1875 5.994,1.1914 3.069,0.0029 3.479,0.0516 4.513,0.5332 4.323,2.0127 4.318,8.1068 -0.007,10.0716 -1.337,0.6073 -9.166,0.5904 -11.513,-0.0248 z m 28.65,0.0108 c -5.667,-1.5501 -10.32,-6.3106 -11.787,-12.0606 -0.361,-1.4135 -0.401,-2.8403 -0.403,-14.3961 0.086,-11.995 -0.509,-11.5259 0.614,-13.9946 1.294,-2.4531 3.963,-3.534 6.79,-2.7492 1.178,0.3272 3.16,2.3097 3.487,3.488 0.137,0.4904 0.245,2.793 0.246,5.2107 l 10e-4,4.332 h 4.583 c 5.248,0 6.642,0.1944 7.907,1.103 2.738,1.9673 2.8,6.3755 0.117,8.3189 -1.338,0.9696 -2.604,1.1548 -7.892,1.1548 h -4.715 v 2.0382 c 0,2.6845 0.308,3.8132 1.371,5.0201 1.448,1.6457 1.985,1.8025 6.636,1.9376 4.049,0.1175 4.075,0.1216 5.176,0.8013 1.261,0.7783 2.427,2.4987 2.654,3.9141 0.327,2.0485 -0.746,4.3553 -2.597,5.5812 l -0.941,0.6232 -4.856,0.0488 c -4.144,0.0416 -5.08,-0.0127 -6.391,-0.3714 z M 92.6155,61.4439 C 89.0431,59.6637 88.3938,54.9619 91.3606,52.357 92.5164,51.3423 93.4462,51 95.0471,51 c 2.2386,0 3.9775,1.0459 4.9829,2.9971 2.404,4.6656 -2.7028,9.7947 -7.4145,7.4468 z"
     fill="#33ccff"
     id="path1" />
</svg>
