<?xml version="1.0" encoding="UTF-8" standalone="no"?>
<svg
   width="160"
   height="160"
   fill="none"
   version="1.1"
   id="svg11"
   xmlns="http://www.w3.org/2000/svg"
   xmlns:svg="http://www.w3.org/2000/svg">
  <defs
     id="defs11" />
  <g
     id="g11"
     transform="matrix(1.4223622,0,0,1.4223622,11.726614,11.72716)">
    <path
       d="m 16.5,85.5 h 63 v -63 l -18,-18 h -45 z"
       fill="#ffe0b2"
       id="path1" />
    <path
       d="M 79.5,42 C 78.672,42 78,41.328 78,40.5 v -18 c 0,-0.828 0.672,-1.5 1.5,-1.5 0.828,0 1.5,0.672 1.5,1.5 v 18 c 0,0.828 -0.672,1.5 -1.5,1.5 z m -63,-5e-4 c -0.828,0 -1.5,-0.672 -1.5,-1.5 v -36 c 0,-0.828 0.672,-1.5 1.5,-1.5 h 39 c 0.828,0 1.5,0.672 1.5,1.5 0,0.828 -0.672,1.5 -1.5,1.5 H 18 v 34.5 c 0,0.828 -0.672,1.5 -1.5,1.5 z"
       fill="#455a64"
       id="path2" />
    <path
       d="m 64.437,22.5 c -1.659,0 -2.937,-1.341 -2.937,-3 v -15 l 17.937,18 z"
       fill="#ffffff"
       id="path3" />
    <path
       d="m 79.497,23.9998 c -0.021,-0.003 -0.042,0 -0.06,0 H 61.5 c -0.828,0 -1.5,-0.672 -1.5,-1.5 v -18 c 0,-0.606 0.366,-1.155 0.927,-1.386 0.558,-0.234 1.203,-0.102 1.635,0.327 l 17.715,17.778 c 0.432,0.264 0.717,0.738 0.717,1.281 0.003,0.828 -0.672,1.5 -1.497,1.5 z M 63,20.9998 H 75.822 L 63,8.1298 Z"
       fill="#455a64"
       id="path4" />
    <path
       d="m 85.5,91.5 c 3.3,0 6,-2.7 6,-6 v -33 c 0,-3.3 -2.7,-6 -6,-6 h -75 c -3.3,0 -6,2.7 -6,6 v 33 c 0,3.3 2.697,6 6,6 z"
       fill="#ffffff"
       id="path5" />
    <path
       d="M 88.734,91.5 H 9.111 C 9.042,91.134 9,90.384 9,90 V 54 c 0,-1.659 1.341,-3 3,-3 h 78 c 0.474,0 0.933,0.069 1.377,0.177 v 37.731 c -0.996,0.585 -1.875,1.713 -2.643,2.592 z"
       fill="#eceff1"
       id="path6" />
    <path
       d="M 84,48 H 12 v 43.5 h 72 z"
       fill="#80d8ff"
       id="path7" />
    <path
       d="M 84,48 H 12 v 3 h 72 z"
       fill="#a9e4ff"
       id="path8" />
    <path
       d="m 12,76.5 v -15 C 12,60.672 11.325,60 10.5,60 9.675,60 9,60.672 9,61.5 v 15 c 0,0.828 0.672,1.5 1.5,1.5 0.825,0 1.5,-0.672 1.5,-1.5 z m 75,-6 v -3 C 87,66.672 86.325,66 85.5,66 84.672,66 84,66.672 84,67.5 v 3 c 0,0.828 0.672,1.5 1.5,1.5 0.825,0 1.5,-0.672 1.5,-1.5 z"
       fill="#455a64"
       id="path9" />
    <path
       d="m 85.5,93 h -75 C 6.366,93 3,89.634 3,85.5 v -33 C 3,48.366 6.366,45 10.5,45 h 75 c 4.134,0 7.5,3.366 7.5,7.5 v 33 C 93,89.634 89.634,93 85.5,93 Z M 10.5,48 C 8.019,48 6,50.019 6,52.5 v 33 c 0,2.481 2.019,4.5 4.5,4.5 h 75 c 2.481,0 4.5,-2.019 4.5,-4.5 v -33 C 90,50.019 87.981,48 85.5,48 Z"
       fill="#455a64"
       id="path10" />
    <path
       d="m 73.5,87 h -3 C 69.672,87 69,86.328 69,85.5 69,84.672 69.672,84 70.5,84 H 72 v -1.5 c 0,-0.828 0.672,-1.5 1.5,-1.5 0.828,0 1.5,0.672 1.5,1.5 v 3 c 0,0.828 -0.672,1.5 -1.5,1.5 z m 0,-30 C 72.672,57 72,56.328 72,55.5 V 54 H 70.5 C 69.672,54 69,53.328 69,52.5 69,51.672 69.672,51 70.5,51 h 3 c 0.828,0 1.5,0.672 1.5,1.5 v 3 c 0,0.828 -0.672,1.5 -1.5,1.5 z m -36,0 C 36.672,57 36,56.328 36,55.5 v -3 C 36,51.672 36.672,51 37.5,51 h 3 c 0.828,0 1.5,0.672 1.5,1.5 0,0.828 -0.672,1.5 -1.5,1.5 H 39 v 1.5 c 0,0.828 -0.672,1.5 -1.5,1.5 z m 3,30 h -3 C 36.672,87 36,86.328 36,85.5 v -3 c 0,-0.828 0.672,-1.5 1.5,-1.5 0.828,0 1.5,0.672 1.5,1.5 V 84 h 1.5 c 0.828,0 1.5,0.672 1.5,1.5 0,0.828 -0.672,1.5 -1.5,1.5 z m 9.604,-7 v -2.176 h 5.888 v -15.04 h -4.576 v -1.696 c 1.216,-0.1707 2.2293,-0.3733 3.04,-0.608 0.8107,-0.2347 1.5467,-0.5333 2.208,-0.896 h 1.952 v 18.24 H 63.96 V 80 Z M 41.64,37 V 13 h 3.12 v 24 z"
       fill="#455a64"
       id="path11" />
  </g>
</svg>
