<?xml version="1.0" encoding="UTF-8" standalone="no"?>
<svg
   width="160"
   height="160"
   viewBox="0 0 160 160"
   fill="none"
   version="1.1"
   id="svg14"
   xmlns="http://www.w3.org/2000/svg"
   xmlns:svg="http://www.w3.org/2000/svg">
  <g
     id="g15"
     transform="matrix(0.80007874,0,0,0.80007874,15.993701,15.993701)">
    <circle
       cx="80"
       cy="80"
       r="80"
       fill="#c7f0ff"
       id="circle1" />
    <g
       clip-path="url(#clip0)"
       id="g14">
      <path
         d="M 0,70.8398 H 160 V 82.0083 H 0 Z"
         fill="#ffffff"
         id="path1" />
      <path
         d="m 0,70.8398 h 160 m 0,11.1685 H 0 Z"
         stroke="#45413c"
         stroke-width="1.5"
         stroke-linecap="round"
         stroke-linejoin="round"
         id="path2" />
      <path
         d="M 28.2803,105.596 V 60.5855 c 0,-1.4814 -0.5885,-2.9021 -1.636,-3.9496 C 25.5969,55.5885 24.1762,55 22.6948,55 c -1.4813,0 -2.902,0.5885 -3.9495,1.6359 -1.0475,1.0475 -1.6359,2.4682 -1.6359,3.9496 v 45.0105 z"
         fill="#e8f4fa"
         id="path3" />
      <path
         d="m 22.7047,55 c -1.4788,0 -2.897,0.5875 -3.9427,1.6331 -1.0456,1.0457 -1.6331,2.4639 -1.6331,3.9427 v 8.9406 c 0,-1.4814 0.5885,-2.902 1.6359,-3.9495 1.0475,-1.0475 2.4682,-1.6359 3.9496,-1.6359 1.4813,0 2.902,0.5884 3.9495,1.6359 1.0475,1.0475 1.6359,2.4681 1.6359,3.9495 v -8.9333 c 10e-4,-0.7345 -0.1432,-1.4619 -0.4242,-2.1405 -0.281,-0.6786 -0.6933,-1.295 -1.2132,-1.8138 C 26.1425,56.1101 25.5253,55.6991 24.8461,55.4196 24.1669,55.1401 23.4391,54.9975 22.7047,55 Z"
         fill="#ffffff"
         id="path4" />
      <path
         d="M 28.2803,105.596 V 60.5855 c 0,-1.4814 -0.5885,-2.9021 -1.636,-3.9496 C 25.5969,55.5885 24.1762,55 22.6948,55 c -1.4813,0 -2.902,0.5885 -3.9495,1.6359 -1.0475,1.0475 -1.6359,2.4682 -1.6359,3.9496 v 45.0105"
         stroke="#45413c"
         stroke-width="1.5"
         stroke-linecap="round"
         stroke-linejoin="round"
         id="path5" />
      <path
         d="M 66.6177,105.595 V 60.5842 c 0,-1.481 -0.5883,-2.9014 -1.6356,-3.9486 C 63.9349,55.5883 62.5145,55 61.0335,55 c -1.4811,0 -2.9014,0.5883 -3.9487,1.6356 -1.0472,1.0472 -1.6356,2.4676 -1.6356,3.9486 v 45.0108 z"
         fill="#e8f4fa"
         id="path6" />
      <path
         d="m 61.025,55 c -1.4788,0 -2.897,0.5875 -3.9427,1.6331 -1.0456,1.0457 -1.6331,2.4639 -1.6331,3.9427 v 8.9406 c 0,-1.4811 0.5884,-2.9014 1.6356,-3.9487 1.0473,-1.0472 2.4676,-1.6356 3.9487,-1.6356 1.481,0 2.9014,0.5884 3.9486,1.6356 1.0473,1.0473 1.6356,2.4676 1.6356,3.9487 v -8.9333 c 0.001,-0.7343 -0.1431,-1.4615 -0.4239,-2.14 -0.2809,-0.6784 -0.693,-1.2947 -1.2126,-1.8134 C 64.4615,56.1109 63.8445,55.6999 63.1656,55.4203 62.4867,55.1406 61.7592,54.9978 61.025,55 Z"
         fill="#ffffff"
         id="path7" />
      <path
         d="M 66.6177,105.595 V 60.5842 c 0,-1.481 -0.5883,-2.9014 -1.6356,-3.9486 C 63.9349,55.5883 62.5145,55 61.0335,55 c -1.4811,0 -2.9014,0.5883 -3.9487,1.6356 -1.0472,1.0472 -1.6356,2.4676 -1.6356,3.9486 v 45.0108"
         stroke="#45413c"
         stroke-width="1.5"
         stroke-linecap="round"
         stroke-linejoin="round"
         id="path8" />
      <path
         d="M 105.019,105.596 V 60.5855 c 0,-1.4814 -0.589,-2.9021 -1.636,-3.9496 C 102.335,55.5885 100.914,55 99.4331,55 c -1.4813,0 -2.902,0.5885 -3.9495,1.6359 -1.0475,1.0475 -1.6359,2.4682 -1.6359,3.9496 v 45.0105 z"
         fill="#e8f4fa"
         id="path9" />
      <path
         d="m 99.4429,55 c -1.4787,0 -2.897,0.5875 -3.9426,1.6331 -1.0457,1.0457 -1.6331,2.4639 -1.6331,3.9427 v 8.9406 c 0,-1.4814 0.5885,-2.902 1.6359,-3.9495 1.0475,-1.0475 2.4682,-1.6359 3.9495,-1.6359 1.4814,0 2.9024,0.5884 3.9494,1.6359 1.048,1.0475 1.636,2.4681 1.636,3.9495 v -8.9333 c 0.001,-0.7345 -0.143,-1.4619 -0.424,-2.1405 -0.281,-0.6786 -0.693,-1.295 -1.213,-1.8138 -0.52,-0.5187 -1.137,-0.9297 -1.817,-1.2092 C 100.905,55.1401 100.177,54.9975 99.4429,55 Z"
         fill="#ffffff"
         id="path10" />
      <path
         d="M 105.019,105.596 V 60.5855 c 0,-1.4814 -0.589,-2.9021 -1.636,-3.9496 C 102.335,55.5885 100.914,55 99.4331,55 c -1.4813,0 -2.902,0.5885 -3.9495,1.6359 -1.0475,1.0475 -1.6359,2.4682 -1.6359,3.9496 v 45.0105"
         stroke="#45413c"
         stroke-width="1.5"
         stroke-linecap="round"
         stroke-linejoin="round"
         id="path11" />
      <path
         d="M 143.437,105.596 V 60.5855 c 0,-1.4814 -0.589,-2.9021 -1.636,-3.9496 C 140.753,55.5885 139.332,55 137.851,55 c -1.481,0 -2.902,0.5885 -3.949,1.6359 -1.048,1.0475 -1.636,2.4682 -1.636,3.9496 v 45.0105 z"
         fill="#e8f4fa"
         id="path12" />
      <path
         d="m 137.841,55 c -1.478,0 -2.897,0.5875 -3.942,1.6331 -1.046,1.0457 -1.633,2.4639 -1.633,3.9427 v 8.9406 c 0,-1.4814 0.588,-2.902 1.636,-3.9495 1.047,-1.0475 2.468,-1.6359 3.949,-1.6359 1.481,0 2.902,0.5884 3.95,1.6359 1.047,1.0475 1.636,2.4681 1.636,3.9495 v -8.9333 c 10e-4,-0.7345 -0.144,-1.4619 -0.425,-2.1405 -0.281,-0.6786 -0.693,-1.295 -1.213,-1.8138 -0.52,-0.5187 -1.137,-0.9297 -1.816,-1.2092 -0.679,-0.2795 -1.407,-0.4221 -2.142,-0.4196 z"
         fill="#ffffff"
         id="path13" />
      <path
         d="M 143.437,105.596 V 60.5855 c 0,-1.4814 -0.589,-2.9021 -1.636,-3.9496 C 140.753,55.5885 139.332,55 137.851,55 c -1.481,0 -2.902,0.5885 -3.949,1.6359 -1.048,1.0475 -1.636,2.4682 -1.636,3.9496 v 45.0105 z"
         stroke="#45413c"
         stroke-width="1.5"
         stroke-linecap="round"
         stroke-linejoin="round"
         id="path14" />
    </g>
  </g>
  <defs
     id="defs14">
    <clipPath
       id="clip0">
      <rect
         width="160"
         height="160"
         fill="#ffffff"
         id="rect14"
         x="0"
         y="0" />
    </clipPath>
  </defs>
</svg>
