<?xml version="1.0" encoding="UTF-8" standalone="no"?>
<svg
   width="160"
   height="160"
   viewBox="0 0 160 160"
   fill="none"
   version="1.1"
   id="svg11"
   xmlns="http://www.w3.org/2000/svg"
   xmlns:svg="http://www.w3.org/2000/svg">
  <defs
     id="defs11" />
  <g
     id="g11"
     transform="matrix(1.1429696,0,0,1.1429696,15.993702,15.993702)">
    <path
       d="M 0,56 C 0,70.8521 5.89998,85.0959 16.402,95.598 26.9041,106.1 41.1479,112 56,112 70.8521,112 85.0959,106.1 95.598,95.598 106.1,85.0959 112,70.8521 112,56 112,41.1479 106.1,26.9041 95.598,16.402 85.0959,5.89998 70.8521,0 56,0 41.1479,0 26.9041,5.89998 16.402,16.402 5.89998,26.9041 0,41.1479 0,56 Z"
       fill="#c7f0ff"
       id="path1" />
    <path
       d="m 18.4634,53.431 c 0,9.8262 3.9034,19.2499 10.8516,26.198 6.9481,6.9482 16.3718,10.8516 26.198,10.8516 9.8261,0 19.2499,-3.9034 26.198,-10.8516 6.9481,-6.9481 10.8516,-16.3718 10.8516,-26.198 0,-9.8262 -3.9035,-19.2499 -10.8516,-26.198 -6.9481,-6.9482 -16.3719,-10.8516 -26.198,-10.8516 -9.8262,0 -19.2499,3.9034 -26.198,10.8516 -6.9482,6.9481 -10.8516,16.3718 -10.8516,26.198 z"
       fill="#ffffff"
       id="path2" />
    <path
       d="m 18.7084,49.1554 c -0.1626,1.4194 -0.2439,2.8469 -0.2436,4.2756 0.0014,5.0449 1.033,10.0365 3.0317,14.6686 1.9987,4.6321 4.9224,8.8072 8.5918,12.2694 3.6694,3.4623 8.0073,6.1386 12.7476,7.865 4.7404,1.7264 9.7834,2.4665 14.8199,2.1749 5.0365,-0.2916 9.9604,-1.6087 14.4699,-3.8706 4.5094,-2.2619 8.5094,-5.4209 11.7548,-9.2835 3.2453,-3.8625 5.6677,-8.3471 7.1185,-13.179 1.4508,-4.8318 1.8995,-9.909 1.3186,-14.9204 C 91.302,58.2059 86.9873,66.5649 80.1978,72.6351 73.4084,78.7053 64.6204,82.061 55.513,82.061 46.4057,82.061 37.6177,78.7053 30.8283,72.6351 24.0388,66.5649 19.7241,58.2059 18.7084,49.1554 Z"
       fill="#e8f4fa"
       id="path3" />
    <path
       opacity="0.15"
       d="m 36.1802,101.982 c 0,0.331 0.5227,0.66 1.5383,0.966 1.0156,0.307 2.5042,0.585 4.3808,0.819 1.8765,0.235 4.1044,0.421 6.5562,0.548 2.4519,0.127 5.0798,0.192 7.7337,0.192 2.6539,0 5.2818,-0.065 7.7336,-0.192 2.4519,-0.127 4.6797,-0.313 6.5563,-0.548 1.8766,-0.234 3.3652,-0.512 4.3808,-0.819 1.0156,-0.306 1.5383,-0.635 1.5383,-0.966 0,-0.332 -0.5227,-0.66 -1.5383,-0.967 -1.0156,-0.306 -2.5042,-0.585 -4.3808,-0.819 -1.8766,-0.2348 -4.1044,-0.4208 -6.5563,-0.5477 -2.4518,-0.127 -5.0797,-0.1923 -7.7336,-0.1923 -2.6539,0 -5.2818,0.0653 -7.7337,0.1923 -2.4518,0.1269 -4.6797,0.3129 -6.5562,0.5477 -1.8766,0.234 -3.3652,0.513 -4.3808,0.819 -1.0156,0.307 -1.5383,0.635 -1.5383,0.967 z"
       fill="#45413c"
       id="path4" />
    <path
       d="m 18.4634,53.431 c 0,9.8262 3.9034,19.2499 10.8516,26.198 6.9481,6.9482 16.3718,10.8516 26.198,10.8516 9.8261,0 19.2499,-3.9034 26.198,-10.8516 6.9482,-6.9481 10.8516,-16.3718 10.8516,-26.198 0,-9.8262 -3.9034,-19.2499 -10.8516,-26.198 -6.9481,-6.9482 -16.3719,-10.8516 -26.198,-10.8516 -9.8262,0 -19.2499,3.9034 -26.198,10.8516 -6.9482,6.9481 -10.8516,16.3718 -10.8516,26.198 z"
       stroke="#45413c"
       stroke-width="1.4"
       stroke-miterlimit="10"
       id="path5" />
    <path
       d="m 45.4092,38.2746 c 0,1.3268 0.2613,2.6407 0.7691,3.8666 0.5077,1.2258 1.252,2.3396 2.1902,3.2779 0.9382,0.9382 2.0521,1.6824 3.2779,2.1902 1.2259,0.5078 2.5397,0.7691 3.8666,0.7691 1.3268,0 2.6407,-0.2613 3.8665,-0.7691 1.2259,-0.5078 2.3397,-1.252 3.2779,-2.1902 0.9383,-0.9383 1.6825,-2.0521 2.1903,-3.2779 0.5077,-1.2259 0.7691,-2.5398 0.7691,-3.8666 0,-1.3268 -0.2614,-2.6407 -0.7691,-3.8666 -0.5078,-1.2258 -1.252,-2.3396 -2.1903,-3.2779 -0.9382,-0.9382 -2.052,-1.6824 -3.2779,-2.1902 -1.2258,-0.5078 -2.5397,-0.7691 -3.8665,-0.7691 -1.3269,0 -2.6407,0.2613 -3.8666,0.7691 -1.2258,0.5078 -2.3397,1.252 -3.2779,2.1902 -0.9382,0.9383 -1.6825,2.0521 -2.1902,3.2779 -0.5078,1.2259 -0.7691,2.5398 -0.7691,3.8666 z"
       fill="#ff6242"
       id="path6" />
    <path
       d="m 64.152,33.0302 c -0.7948,-1.3085 -1.8766,-2.4192 -3.1636,-3.2484 -1.2869,-0.8292 -2.7455,-1.3551 -4.2655,-1.5381 -1.52,-0.1829 -3.0617,-0.0181 -4.5086,0.482 -1.447,0.5001 -2.7614,1.3225 -3.844,2.405 -1.0826,1.0825 -1.9051,2.3968 -2.4054,3.8437 -0.5003,1.447 -0.6652,2.9886 -0.4825,4.5087 0.1828,1.52 0.7086,2.9786 1.5377,4.2656 0.829,1.2871 1.9397,2.3689 3.2481,3.1639 -0.9801,-1.5825 -1.4967,-3.4082 -1.491,-5.2696 0.0018,-2.6793 1.0669,-5.2483 2.9613,-7.1429 1.8944,-1.8947 4.4632,-2.9601 7.1425,-2.9623 1.862,-0.005 3.688,0.512 5.271,1.4924 z"
       fill="#e04122"
       id="path7" />
    <path
       d="m 45.4092,38.2746 c 0,1.3269 0.2613,2.6407 0.7691,3.8666 0.5077,1.2258 1.252,2.3396 2.1902,3.2779 0.9382,0.9382 2.0521,1.6824 3.2779,2.1902 1.2259,0.5078 2.5397,0.7691 3.8666,0.7691 1.3268,0 2.6407,-0.2613 3.8665,-0.7691 1.2259,-0.5078 2.3397,-1.252 3.2779,-2.1902 0.9383,-0.9383 1.6825,-2.0521 2.1903,-3.2779 0.5077,-1.2259 0.7691,-2.5397 0.7691,-3.8666 0,-1.3268 -0.2614,-2.6407 -0.7691,-3.8666 -0.5078,-1.2258 -1.252,-2.3396 -2.1903,-3.2779 -0.9382,-0.9382 -2.052,-1.6824 -3.2779,-2.1902 -1.2258,-0.5078 -2.5397,-0.7691 -3.8665,-0.7691 -1.3269,0 -2.6407,0.2613 -3.8666,0.7691 -1.2258,0.5078 -2.3397,1.252 -3.2779,2.1902 -0.9382,0.9383 -1.6825,2.0521 -2.1902,3.2779 -0.5078,1.2259 -0.7691,2.5398 -0.7691,3.8666 z"
       stroke="#45413c"
       stroke-width="1.4"
       stroke-miterlimit="10"
       id="path8" />
    <path
       d="m 44.9941,67.5348 c 0,2.6797 1.0645,5.2496 2.9594,7.1445 1.8948,1.8948 4.4647,2.9593 7.1444,2.9593 2.6797,0 5.2497,-1.0645 7.1445,-2.9593 1.8948,-1.8949 2.9593,-4.4648 2.9593,-7.1445 0,-2.6797 -1.0645,-5.2496 -2.9593,-7.1445 -1.8948,-1.8948 -4.4648,-2.9593 -7.1445,-2.9593 -2.6797,0 -5.2496,1.0645 -7.1444,2.9593 -1.8949,1.8949 -2.9594,4.4648 -2.9594,7.1445 z"
       fill="#00b8f0"
       id="path9" />
    <path
       d="m 63.7359,62.2904 c -0.7949,-1.3084 -1.8768,-2.419 -3.1638,-3.2481 -1.2871,-0.8291 -2.7457,-1.3548 -4.2657,-1.5376 -1.52,-0.1828 -3.0617,-0.0179 -4.5086,0.4824 -1.4469,0.5003 -2.7613,1.3228 -3.8438,2.4054 -1.0825,1.0826 -1.9048,2.397 -2.405,3.844 -0.5001,1.4469 -0.6649,2.9886 -0.482,4.5086 0.183,1.52 0.7089,2.9786 1.5381,4.2656 0.8292,1.2869 1.94,2.3687 3.2484,3.1635 -0.9804,-1.5829 -1.4974,-3.409 -1.4924,-5.271 0.0023,-2.679 1.0675,-5.2477 2.9618,-7.142 1.8944,-1.8944 4.463,-2.9596 7.142,-2.9618 1.8619,-0.0059 3.6881,0.5107 5.271,1.491 z"
       fill="#009fd9"
       id="path10" />
    <path
       d="m 44.9941,67.5348 c 0,2.6797 1.0645,5.2496 2.9594,7.1445 1.8948,1.8948 4.4647,2.9593 7.1444,2.9593 2.6797,0 5.2497,-1.0645 7.1445,-2.9593 1.8948,-1.8949 2.9593,-4.4648 2.9593,-7.1445 0,-2.6797 -1.0645,-5.2496 -2.9593,-7.1445 -1.8948,-1.8948 -4.4648,-2.9593 -7.1445,-2.9593 -2.6797,0 -5.2496,1.0645 -7.1444,2.9593 -1.8949,1.8949 -2.9594,4.4648 -2.9594,7.1445 z"
       stroke="#45413c"
       stroke-width="1.4"
       stroke-miterlimit="10"
       id="path11" />
  </g>
</svg>
