<?xml version="1.0" encoding="UTF-8" standalone="no"?>
<svg
   width="160"
   height="160"
   fill="none"
   version="1.1"
   id="svg5"
   sodipodi:docname="spiral-matrix.svg"
   inkscape:version="1.4.3 (0d15f75042, 2025-12-25)"
   xmlns:inkscape="http://www.inkscape.org/namespaces/inkscape"
   xmlns:sodipodi="http://sodipodi.sourceforge.net/DTD/sodipodi-0.dtd"
   xmlns="http://www.w3.org/2000/svg"
   xmlns:svg="http://www.w3.org/2000/svg">
  <defs
     id="defs5" />
  <sodipodi:namedview
     id="namedview5"
     pagecolor="#ffffff"
     bordercolor="#000000"
     borderopacity="0.25"
     inkscape:showpageshadow="2"
     inkscape:pageopacity="0.0"
     inkscape:pagecheckerboard="0"
     inkscape:deskcolor="#d1d1d1"
     inkscape:zoom="2.71875"
     inkscape:cx="55.908046"
     inkscape:cy="56.091954"
     inkscape:window-width="1440"
     inkscape:window-height="883"
     inkscape:window-x="0"
     inkscape:window-y="0"
     inkscape:window-maximized="1"
     inkscape:current-layer="svg5" />
  <path
     d="M 12.24,80 A 67.760363,67.760363 0 0 0 80,147.76 67.760363,67.760363 0 0 0 147.76,80 67.760363,67.760363 0 0 0 80,12.24 67.760363,67.760363 0 0 0 12.24,80 Z"
     fill="#c7f0ff"
     id="path1"
     style="stroke-width:1.21" />
  <path
     d="m 87.460158,42.406622 c -1.856987,-0.311696 -3.502224,-0.45133 -5.385105,-0.461373 l -1.011197,0.01646 c -5.109951,0.08288 -9.462926,1.15797 -14.17273,3.097721 -4.97552,2.218777 -8.45427,4.597637 -12.326391,8.427045 -3.750516,3.924635 -6.067303,7.429158 -8.19412,12.424643 L 46.022861,66.7995 c -1.852026,4.731584 -2.485824,9.132354 -2.48171,14.197051 0.17182,5.578584 1.081135,9.767362 3.287933,14.891591 2.245276,4.832128 4.62341,8.199198 8.430433,11.923698 3.874904,3.5822 7.316144,5.77908 12.206601,7.76215 5.082968,1.88506 9.18874,2.5744 14.608814,2.4707 5.342755,-0.26306 9.339506,-1.20819 14.204311,-3.4266 l 0.811426,-0.39761 c 4.099001,-2.00872 7.243421,-4.53399 10.349251,-7.85883 3.29047,-3.72994 5.28661,-7.020773 7.03603,-11.676611 1.63108,-4.790511 2.17134,-8.634923 1.92692,-13.688367 -0.38151,4.917924 -1.34322,8.58374 -3.46895,13.035935 -2.10697,4.129851 -4.27468,6.995733 -7.67696,10.145963 -3.41547,2.99197 -6.423528,4.82076 -10.662037,6.45668 -4.370157,1.53852 -7.885933,2.08399 -12.51987,1.96916 -4.552383,-0.24624 -7.957081,-1.0567 -12.115609,-2.92506 -3.894748,-1.87864 -6.61023,-3.84271 -9.616112,-6.95096 -2.883551,-3.151321 -4.661646,-5.944848 -6.282562,-9.898886 -1.547348,-4.113274 -2.130447,-7.436297 -2.10782,-11.832711 0.150161,-4.357089 0.860915,-7.627114 2.566289,-11.638869 1.736834,-3.789236 3.580269,-6.442645 6.518875,-9.39807 3.005882,-2.860803 5.686153,-4.638293 9.496443,-6.28595 3.996146,-1.593933 7.236889,-2.224585 11.540375,-2.281697 1.313939,0.01034 2.465859,0.109142 3.761648,0.326821 1.704527,0.311817 3.092034,0.718014 4.694558,1.376496 2.784936,1.217865 4.741627,2.527811 6.93209,4.633816 2.136255,2.170861 3.472822,4.11642 4.725412,6.893249 1.22488,2.932677 1.72679,5.317587 1.81452,8.495047 -0.005,3.195852 -0.44662,5.606172 -1.59672,8.587007 -1.19802,2.854874 -2.502884,4.867225 -4.613729,7.130651 -2.190826,2.222649 -4.163973,3.621288 -6.989444,4.947569 -3.002978,1.309704 -5.454801,1.863884 -8.728335,2.00255 -1.998678,0.03037 -3.510452,-0.22022 -5.386799,-0.907984 -1.809434,-0.72479 -3.088767,-1.527262 -4.533991,-2.834425 -1.428647,-1.365969 -2.331549,-2.602831 -3.196336,-4.380684 -0.861157,-1.900426 -1.233353,-3.456486 -1.347093,-5.539985 -0.053,-2.120404 0.197714,-3.727768 0.907016,-5.726083 0.753104,-1.935516 1.594538,-3.306083 2.971518,-4.859723 1.445345,-1.542266 2.759405,-2.520672 4.651361,-3.463867 2.030864,-0.945252 3.698607,-1.361492 5.934324,-1.504877 1.376496,-0.05118 2.421815,0.09983 3.724743,0.545347 1.267475,0.476982 2.16711,1.016884 3.189076,1.90454 1.019425,0.936419 1.666896,1.790316 2.295249,3.023911 0.632709,1.328338 0.914639,2.422178 1.019304,3.890029 0.0628,1.504514 -0.09777,2.649658 -0.578259,4.076369 -0.516428,1.391016 -1.103036,2.37886 -2.070431,3.503071 -1.022571,1.123485 -1.95657,1.83799 -3.307172,2.53374 -1.457566,0.702284 -2.659096,1.017852 -4.27251,1.140304 1.656611,0.07671 2.91731,-0.09898 4.488737,-0.628716 1.530287,-0.569426 2.614568,-1.218107 3.84659,-2.28932 1.227303,-1.129414 2.002792,-2.160334 2.752629,-3.650691 0.751531,-1.601435 1.08053,-2.91852 1.190882,-4.684757 0.05844,-1.802174 -0.150887,-3.170563 -0.749837,-4.871097 -0.637549,-1.647415 -1.352901,-2.811314 -2.527811,-4.130093 -1.23178,-1.306437 -2.351272,-2.129116 -3.964686,-2.918399 -1.72546,-0.786016 -3.14237,-1.124695 -5.036504,-1.223794 -2.832489,-0.07115 -4.98157,0.274065 -7.646111,1.237225 -2.572339,1.018578 -4.388307,2.154768 -6.438047,4.012481 -2.023967,1.940598 -3.294104,3.699696 -4.504951,6.229806 -1.19911,2.696122 -1.707068,4.905461 -1.835207,7.854473 -0.04041,2.984707 0.34848,5.245229 1.39513,8.040571 1.098438,2.686926 2.308559,4.578398 4.280012,6.708603 2.049619,2.0933 3.899709,3.402642 6.555417,4.642042 2.818574,1.21992 5.123382,1.72836 8.193757,1.83424 4.410329,0.0268 7.745573,-0.57306 11.862356,-2.15489 3.943269,-1.650559 6.713932,-3.456605 9.824352,-6.388435 3.04412,-3.03589 4.94103,-5.768191 6.72215,-9.683146 1.7418,-4.138079 2.45171,-7.513495 2.56073,-12.003563 -0.0254,-4.506887 -0.67663,-7.908439 -2.34293,-12.095523 -1.72485,-3.99179 -3.59273,-6.79052 -6.61047,-9.920548 -3.10957,-3.048716 -5.897294,-4.941035 -9.881824,-6.702069 -2.304445,-0.956505 -4.294411,-1.543476 -6.749138,-1.99287 z"
     fill="#3159a6"
     id="path2"
     style="stroke-width:1.21" />
  <path
     d="M 86.084705,41.743309 C 84.228202,41.431734 82.582118,41.291253 80.6996,41.28 c -5.672722,0.08712 -9.945716,0.94259 -15.196874,3.0855 -4.989919,2.20583 -8.484641,4.574042 -12.383624,8.387357 -3.786816,3.917133 -6.135668,7.419841 -8.309796,12.416294 -2.104916,5.247044 -2.93667,9.510479 -2.990878,15.164083 l 0.02045,1.010229 c 0.102729,5.081274 1.184348,9.409807 3.122889,14.089482 l 0.390225,0.870716 c 1.997589,4.457399 4.575131,7.916429 7.998221,11.378839 3.900677,3.73031 7.382694,6.04008 12.343815,8.16617 5.198402,2.05059 9.41743,2.85028 15.005452,2.87133 l 1.003211,-0.0262 c 5.006738,-0.13044 9.268963,-1.2227 13.867689,-3.1633 l 0.860552,-0.39241 c 4.369068,-1.99166 7.755618,-4.5496 11.135268,-7.9382 3.63254,-3.853 5.876,-7.284564 7.92429,-12.167398 1.96516,-5.101723 2.71645,-9.233268 2.69043,-14.699201 l -0.0317,0.940896 c -0.16504,4.899653 -1.25307,9.045597 -3.17177,13.54111 -2.16735,4.707747 -4.4678,7.997983 -8.13773,11.658113 -3.74653,3.53416 -7.085642,5.71894 -11.82981,7.73153 -4.959911,1.93637 -8.98304,2.68548 -14.310307,2.70459 l -0.928675,-0.0242 c -4.784582,-0.12438 -8.844858,-1.15784 -13.24708,-2.9985 -4.629944,-2.09148 -7.869961,-4.32321 -11.48169,-7.89597 -3.498473,-3.65892 -5.666551,-6.926043 -7.673699,-11.575952 -1.939388,-4.874969 -2.701325,-8.833 -2.750572,-14.081496 l 0.01851,-0.921415 c 0.09547,-4.72384 1.093356,-8.739709 2.88464,-13.095709 2.044416,-4.594975 4.235726,-7.814543 7.752228,-11.409211 3.610519,-3.490729 6.840009,-5.65917 11.441881,-7.674788 4.836007,-1.954755 8.767055,-2.733027 13.984333,-2.80841 1.693395,0.01125 3.17504,0.138182 4.844961,0.418539 2.204741,0.403535 3.995299,0.929522 6.066819,1.784266 3.588013,1.576509 6.104934,3.270993 8.917461,5.998333 2.73726,2.806353 4.44142,5.319281 6.02882,8.904632 1.54433,3.775321 2.16615,6.845817 2.23996,10.924606 -0.0471,4.085081 -0.64772,7.164531 -2.16736,10.955219 -1.57009,3.611487 -3.26264,6.146558 -5.99167,8.983645 -2.813498,2.76606 -5.334896,4.490673 -8.936582,6.102756 -3.798674,1.572275 -6.891918,2.211515 -11.002288,2.302505 -2.813855,-0.022 -4.936921,-0.4287 -7.55161,-1.466032 -2.494778,-1.074359 -4.246858,-2.235838 -6.209841,-4.111943 -1.916277,-1.936726 -3.11212,-3.67477 -4.232338,-6.158779 -1.094566,-2.622917 -1.542508,-4.760987 -1.612325,-7.602672 0.01452,-2.85439 0.421322,-5.009158 1.465794,-7.664624 1.083797,-2.536644 2.258223,-4.318974 4.15756,-6.318136 1.963588,-1.954271 3.726437,-3.174798 6.248803,-4.321394 2.666719,-1.122517 4.841573,-1.584979 7.733957,-1.664839 2.006664,0.0063 3.522552,0.290037 5.390671,1.020877 1.785718,0.759275 3.041093,1.583406 4.449291,2.91731 1.377585,1.379884 2.238258,2.619892 3.047385,4.394236 0.792792,1.877073 1.12046,3.408812 1.17854,5.445847 -0.0024,2.049377 -0.289311,3.598419 -1.031767,5.507678 -0.772464,1.826858 -1.612083,3.111515 -2.972486,4.553835 -1.408561,1.412191 -2.67531,2.295128 -4.488495,3.12664 -1.919907,0.815903 -3.487946,1.154945 -5.573139,1.218954 2.099592,0.0024 3.687233,-0.290037 5.644892,-1.048586 1.87308,-0.789646 3.189681,-1.650561 4.668059,-3.045328 1.446797,-1.443772 2.34982,-2.74307 3.199603,-4.60284 0.832722,-1.96746 1.175515,-3.574098 1.235652,-5.710353 -0.0034,-2.14775 -0.307219,-3.771933 -1.088758,-5.772184 C 93.546896,67.58419 92.663596,66.240606 91.234223,64.733672 89.756208,63.260255 88.42787,62.341986 86.52696,61.478893 84.518239,60.634797 82.878326,60.288616 80.6996,60.23223 c -3.090945,0.0081 -5.426245,0.447216 -8.303625,1.575662 -2.748636,1.171764 -4.678707,2.444805 -6.843397,4.504104 -2.114475,2.127543 -3.431923,4.039464 -4.667817,6.774064 -1.207459,2.887423 -1.699929,5.242809 -1.774707,8.372837 0.01815,3.141644 0.471779,5.51397 1.628176,8.434789 1.198142,2.786751 2.495867,4.742353 4.593039,6.933542 2.163601,2.137465 4.106377,3.468222 6.882359,4.713432 2.928321,1.21436 5.31553,1.70719 8.485972,1.77447 4.488495,-0.0355 7.876132,-0.69043 12.045187,-2.35321 3.973398,-1.719774 6.760754,-3.58027 9.880013,-6.58228 3.03964,-3.093849 4.92942,-5.868863 6.69336,-9.832944 1.71662,-4.175952 2.40693,-7.576536 2.48824,-12.092377 -0.053,-4.521165 -0.72467,-7.929977 -2.41564,-12.122748 -1.74482,-3.989733 -3.62553,-6.786285 -6.65621,-9.912078 -3.118899,-3.041335 -5.911579,-4.929298 -9.899255,-6.686702 -2.304687,-0.953964 -4.296468,-1.540209 -6.75059,-1.989482 z"
     fill="#91d8f7"
     id="path3"
     style="stroke-width:1.21" />
  <path
     d="m 85.932537,47.320069 c -1.621521,-0.17303 -3.072553,-0.218526 -4.701939,-0.149798 -5.322548,0.344487 -9.291106,1.349513 -14.105091,3.641858 -4.471555,2.281092 -7.558507,4.635873 -10.923396,8.358317 -3.178912,3.72438 -5.092285,6.995978 -6.74212,11.606683 -1.519518,4.711861 -1.988998,8.481011 -1.67827,13.421562 0.446611,4.780105 1.453573,8.322138 3.661702,12.58279 2.157793,3.906609 4.340754,6.579499 7.759609,9.444779 3.369366,2.66224 6.298413,4.23003 10.400071,5.50138 4.121986,1.12675 7.382815,1.38255 11.627374,0.90206 3.154591,-0.44492 5.537323,-1.14999 8.399215,-2.5456 -2.938243,0.87011 -5.332591,1.21835 -8.399094,1.24231 -3.938187,-0.07 -6.904502,-0.65377 -10.56693,-2.10625 -3.493149,-1.50089 -5.956951,-3.12265 -8.730271,-5.72415 -2.719838,-2.69479 -4.434529,-5.119386 -6.069602,-8.584221 -1.617044,-3.683603 -2.307107,-6.692147 -2.50107,-10.712856 -0.0778,-4.079636 0.419265,-7.170218 1.791768,-11.013057 1.453452,-3.718088 3.07461,-6.353952 5.717008,-9.34604 2.775377,-2.973454 5.298953,-4.86299 8.931615,-6.696745 3.906001,-1.843193 7.117341,-2.663573 11.427361,-2.972123 1.452968,-0.07563 2.717055,-0.03654 4.162037,0.132253 1.679601,0.220704 3.0734,0.544621 4.677739,1.087669 3.026089,1.106787 5.179768,2.369301 7.6351,4.45401 2.461137,2.209823 4.034017,4.233548 5.573267,7.161748 1.56259,3.171289 2.2754,5.790092 2.57669,9.313128 0.20316,3.63484 -0.14326,6.407434 -1.24775,9.875173 -1.20189,3.40373 -2.59,5.830869 -4.895059,8.60673 -2.455816,2.795705 -4.713918,4.587715 -7.989993,6.352981 -3.564055,1.80314 -6.515971,2.63913 -10.49191,3.01944 -2.786388,0.17557 -4.915383,-0.079 -7.579077,-0.9115 -2.620013,-0.91004 -4.488979,-1.96746 -6.628501,-3.730547 -2.157914,-1.88155 -3.540218,-3.614512 -4.903404,-6.132401 -1.393315,-2.74065 -2.040665,-5.014845 -2.335421,-8.075177 -0.211145,-3.171773 0.07187,-5.600243 1.008535,-8.636375 1.026806,-2.991483 2.224585,-5.128706 4.224715,-7.576657 1.380731,-1.612446 2.655224,-2.784694 4.375239,-4.028453 -1.847186,1.084039 -3.233967,2.140732 -4.771635,3.631815 -2.304566,2.341834 -3.73285,4.444935 -5.06385,7.450575 -1.292522,3.163061 -1.806772,5.740724 -1.853478,9.158974 0.05554,3.415225 0.579348,5.989258 1.879251,9.147963 1.335598,2.996807 2.76848,5.091559 5.07353,7.426133 2.36192,2.26113 4.473249,3.65698 7.480946,4.94345 3.149388,1.23929 5.707207,1.71893 9.09315,1.72558 4.668422,-0.13685 8.175849,-0.89854 12.467961,-2.7404 4.047571,-1.87466 6.866751,-3.86474 9.990371,-7.048736 3.00419,-3.240259 4.84569,-6.122963 6.51488,-10.216272 1.58885,-4.256175 2.17219,-7.69802 2.09923,-12.242296 -0.20655,-4.482687 -0.99208,-7.839469 -2.83309,-11.931689 -1.85409,-3.832796 -3.79638,-6.492618 -6.88575,-9.421786 -3.121322,-2.796431 -5.881574,-4.498538 -9.789995,-6.015515 -2.361557,-0.849662 -4.369673,-1.32737 -6.861668,-1.630717 z"
     fill="#0e8dab"
     id="path4"
     style="stroke-width:1.21" />
  <path
     d="m 87.43213,50.200139 c -1.290223,-0.197956 -2.446136,-0.285439 -3.751484,-0.287375 -4.49515,0.08748 -7.872744,0.777667 -12.023407,2.501433 -3.934557,1.768052 -6.684645,3.659645 -9.74292,6.698923 -2.95966,3.111878 -4.788212,5.887497 -6.46261,9.842503 -1.6093,4.136748 -2.223012,7.485181 -2.212243,11.923582 0.142659,4.407183 0.86152,7.709757 2.610938,11.755029 1.7787,3.81271 3.660129,6.469144 6.669883,9.405336 3.061663,2.82231 5.779565,4.55539 9.640796,6.11327 4.012239,1.47971 7.245359,2.0155 11.519442,1.92463 3.295556,-0.15815 5.832321,-0.65026 8.933067,-1.77169 -3.135715,0.86213 -5.679135,1.17443 -8.932946,1.11841 -4.120534,-0.17812 -7.20676,-0.87822 -10.988978,-2.52576 -3.557763,-1.6681 -6.043708,-3.42864 -8.806017,-6.22399 -2.662242,-2.84737 -4.310141,-5.380747 -5.825303,-8.97481 -1.456356,-3.754146 -2.016102,-6.791488 -2.031106,-10.820183 0.103092,-4.008004 0.73084,-7.017153 2.26875,-10.719753 1.574452,-3.508153 3.258167,-5.967357 5.950175,-8.712726 2.762309,-2.665267 5.231314,-4.324298 8.747211,-5.8685 3.696187,-1.499069 6.695777,-2.096688 10.685147,-2.166626 1.269411,0.0048 2.36797,0.10043 3.618384,0.319077 1.453089,0.276001 2.648327,0.62799 4.018168,1.185316 2.521277,1.091783 4.293443,2.270928 6.278569,4.168934 1.93842,1.959111 3.152294,3.716757 4.290174,6.227386 1.11405,2.653288 1.57022,4.811081 1.65189,7.687735 -0.003,2.894683 -0.40015,5.076797 -1.44183,7.776428 -1.08537,2.586254 -2.268631,4.407909 -4.182246,6.45656 -1.985731,2.010657 -3.773506,3.275591 -6.333624,4.472523 -2.719475,1.180718 -4.937042,1.677302 -7.899364,1.796366 -1.682263,0.02481 -2.952642,-0.184888 -4.53145,-0.764357 -1.522301,-0.610445 -2.598717,-1.287077 -3.81392,-2.387572 -1.201046,-1.149863 -1.960926,-2.191189 -2.687531,-3.68687 -0.723459,-1.599015 -1.034913,-2.905815 -1.129414,-4.658379 -0.04332,-1.783782 0.166133,-3.13269 0.763026,-4.81338 0.633677,-1.62745 1.341527,-2.780217 2.499255,-4.086654 0.7986,-0.860189 1.528593,-1.479709 2.507483,-2.127301 -1.043988,0.565917 -1.830246,1.126631 -2.70798,1.926683 -1.310793,1.252592 -2.13444,2.389387 -2.918883,4.024823 -0.777183,1.743247 -1.102673,3.168022 -1.185195,5.075708 -0.02553,1.930313 0.223729,3.387879 0.901934,5.195377 0.711359,1.736471 1.496891,2.958813 2.773199,4.334099 1.326039,1.350602 2.523455,2.195908 4.240566,2.993903 1.821534,0.784564 3.305841,1.106908 5.28891,1.171038 3.309229,0.0041 5.804007,-0.455081 8.887329,-1.657216 2.946713,-1.24993 5.015208,-2.614205 7.333568,-4.820761 2.264267,-2.27964 3.674037,-4.329259 4.991867,-7.261089 1.28514,-3.093244 1.80023,-5.609681 1.86727,-8.959929 -0.0331,-3.356782 -0.52575,-5.882899 -1.78015,-8.996592 -1.29447,-2.962564 -2.69323,-5.038803 -4.94625,-7.356921 -2.317271,-2.25423 -4.392905,-3.65299 -7.355711,-4.949505 -1.795035,-0.736285 -3.332703,-1.174668 -5.246439,-1.497133 z"
     fill="#00afef"
     id="path5"
     style="stroke-width:1.21" />
</svg>
