<?xml version="1.0" encoding="UTF-8" standalone="no"?>
<svg
   width="160"
   height="160"
   viewBox="0 0 160 160"
   fill="none"
   version="1.1"
   id="svg34"
   xmlns="http://www.w3.org/2000/svg"
   xmlns:svg="http://www.w3.org/2000/svg">
  <defs
     id="defs34" />
  <g
     id="g34"
     transform="matrix(1.9487171,0,0,1.9487171,-5.870024,-5.9643429)">
    <path
       d="M 80.1365,61.1881 C 82.8688,55.1564 84.0449,48.5359 83.5574,41.9323 83.0698,35.3286 80.9341,28.9527 77.3457,23.3877 73.7572,17.8227 68.8306,13.2464 63.0165,10.0774 57.2024,6.90848 50.6865,5.24805 44.0649,5.24805 c -6.6217,0 -13.1376,1.66043 -18.9517,4.82935 -5.8141,3.169 -10.7407,7.7453 -14.3292,13.3103 -3.58841,5.565 -5.72411,11.9409 -6.21166,18.5446 -0.48755,6.6036 0.68861,13.2241 3.42087,19.2558 z"
       fill="#b8ecff"
       id="path1" />
    <path
       d="m 7.99316,61.1885 c 3.14094,6.9339 8.21384,12.8155 14.61124,16.9408 6.3975,4.1252 13.8483,6.3191 21.4604,6.3191 7.6121,0 15.063,-2.1939 21.4604,-6.3191 6.3974,-4.1253 11.4703,-10.0069 14.6112,-16.9408 z"
       fill="#f2dfc2"
       id="path2" />
    <path
       d="M 1,61.1885 H 3.475"
       stroke="#45413c"
       stroke-linecap="round"
       stroke-linejoin="round"
       id="path3" />
    <path
       d="M 5.45508,61.1885 H 82.6751"
       stroke="#45413c"
       stroke-linecap="round"
       stroke-linejoin="round"
       id="path4" />
    <path
       d="m 84.6548,61.1885 h 2.475"
       stroke="#45413c"
       stroke-linecap="round"
       stroke-linejoin="round"
       id="path5" />
    <path
       d="m 17.2358,61.3021 h 46.1736 v -9.1684 c 0,-2.3328 -0.4594,-4.6427 -1.3521,-6.7978 -0.8927,-2.1552 -2.2012,-4.1135 -3.8507,-5.763 -1.6495,-1.6495 -3.6077,-2.9579 -5.7629,-3.8506 -2.1552,-0.8927 -4.4651,-1.3522 -6.7978,-1.3522 -8.6308,0 -18.0933,6.4716 -18.0933,19.9475 l -0.0029,-0.0049 c -5e-4,0.6186 0.3788,6.5003 0,6.9894"
       stroke="#45413c"
       stroke-linejoin="round"
       id="path6" />
    <path
       d="m 45.6489,34.3701 c -2.9367,-0.0019 -5.8279,0.725 -8.4145,2.1156 -2.5866,1.3906 -4.7876,3.4013 -6.4058,5.8519 2.4389,3.3554 3.8086,7.3685 3.9303,11.5147 v 7.4498 h 21.78 v -7.4498 c 0.1231,-4.1464 1.4939,-8.1594 3.9333,-11.5147 -1.6185,-2.451 -3.82,-4.462 -6.4071,-5.8526 -2.5872,-1.3906 -5.479,-2.1173 -8.4162,-2.1149 z"
       fill="#00b8f0"
       id="path7" />
    <path
       d="m 45.6489,40.1001 c 2.4099,-0.003 4.7951,0.4859 7.0096,1.4366 2.2144,0.9507 4.2116,2.3433 5.8693,4.0925 0.5464,-1.1536 1.1962,-2.2554 1.9414,-3.2917 -1.6196,-2.4493 -3.8209,-4.4589 -6.4072,-5.8493 -2.5863,-1.3904 -5.4768,-2.1181 -8.4131,-2.1181 -2.9363,0 -5.8268,0.7277 -8.4131,2.1181 -2.5862,1.3904 -4.7876,3.4 -6.4072,5.8493 0.7449,1.0365 1.3947,2.1383 1.9414,3.2917 1.6577,-1.7493 3.6549,-3.1419 5.8693,-4.0926 2.2145,-0.9507 4.5997,-1.4395 7.0096,-1.4365 z"
       fill="#4acfff"
       id="path8" />
    <path
       d="m 45.6489,34.3701 c -2.9367,-0.0019 -5.8279,0.725 -8.4145,2.1156 -2.5866,1.3906 -4.7876,3.4013 -6.4058,5.8519 2.4389,3.3554 3.8086,7.3685 3.9303,11.5147 v 7.4498 h 21.78 v -7.4498 c 0.1231,-4.1464 1.4939,-8.1594 3.9333,-11.5147 -1.6185,-2.451 -3.82,-4.462 -6.4071,-5.8526 -2.5872,-1.3906 -5.479,-2.1173 -8.4162,-2.1149 z"
       stroke="#45413c"
       stroke-linecap="round"
       stroke-linejoin="round"
       id="path9" />
    <path
       d="m 45.6488,59.0101 -12.474,-12.473 c 0.8344,1.9464 1.353,4.0134 1.5365,6.1232 l 8.6268,8.6417 h 4.6174 l 8.6269,-8.6417 c 0.1834,-2.1098 0.7021,-4.1768 1.5364,-6.1232 z"
       fill="#ffe500"
       stroke="#45413c"
       stroke-linecap="round"
       stroke-linejoin="round"
       id="path10" />
    <path
       d="m 45.6418,41.8187 -3.0017,-3.0046 c -0.6437,-0.6447 -1.0055,-1.5184 -1.0058,-2.4295 v -4.3075 h 8.0299 v 4.3036 c 10e-5,0.4522 -0.0891,0.9001 -0.2623,1.3178 -0.1733,0.4178 -0.4273,0.7972 -0.7475,1.1166 z"
       fill="#bf8256"
       id="path11" />
    <path
       d="m 45.6418,41.8187 -3.0017,-3.0046 c -0.6437,-0.6447 -1.0055,-1.5184 -1.0058,-2.4295 v -4.3075 h 8.0299 v 4.3036 c 10e-5,0.4522 -0.0891,0.9001 -0.2623,1.3178 -0.1733,0.4178 -0.4273,0.7972 -0.7475,1.1166 z"
       stroke="#45413c"
       stroke-linecap="round"
       stroke-linejoin="round"
       id="path12" />
    <path
       d="M 42.6403,38.8144 C 41.9966,38.1697 41.6348,37.296 41.6345,36.3849 v -2.4225 c -0.0933,-0.0864 -0.2041,-0.1515 -0.325,-0.1909 -0.1208,-0.0393 -0.2488,-0.0519 -0.375,-0.0368 -0.314,0.0989 -0.6104,0.2469 -0.8781,0.4385 -0.801,0.5628 -1.4265,1.3406 -1.8045,2.2435 -0.378,0.903 -0.4931,1.8944 -0.3319,2.86 0.3574,2.3354 0.7177,3.9837 0.99,5.043 0.0444,0.1759 0.1299,0.3386 0.2496,0.475 0.1196,0.1363 0.2699,0.2422 0.4385,0.3091 0.1685,0.0669 0.3506,0.0928 0.5311,0.0756 0.1806,-0.0172 0.3544,-0.077 0.5073,-0.1746 l 5.0094,-3.1898 z"
       fill="#ffffff"
       stroke="#45413c"
       stroke-linecap="round"
       stroke-linejoin="round"
       id="path13" />
    <path
       d="m 48.6516,38.8144 c 0.6437,-0.6447 1.0055,-1.5184 1.0058,-2.4295 v -2.4225 c 0.0932,-0.0864 0.2041,-0.1515 0.325,-0.1909 0.1208,-0.0393 0.2488,-0.0519 0.375,-0.0368 0.314,0.0989 0.6104,0.2469 0.8781,0.4385 0.8006,0.5631 1.4258,1.3409 1.8036,2.2438 0.3778,0.903 0.4928,1.8942 0.3318,2.8597 -0.3574,2.3354 -0.7177,3.9837 -0.99,5.043 -0.0444,0.1759 -0.1299,0.3386 -0.2496,0.475 -0.1196,0.1363 -0.2699,0.2422 -0.4385,0.3091 -0.1685,0.0669 -0.3506,0.0928 -0.5311,0.0756 -0.1806,-0.0172 -0.3544,-0.077 -0.5073,-0.1746 L 45.6489,41.819 Z"
       fill="#ffffff"
       stroke="#45413c"
       stroke-linecap="round"
       stroke-linejoin="round"
       id="path14" />
    <path
       d="m 45.6491,41.8188 -5.0163,3.1898 c 1.6683,2.2814 3.142,4.6989 4.4055,7.227 l 0.3356,0.8386 c 0.0156,0.0603 0.0508,0.1138 0.1001,0.152 0.0493,0.0382 0.1098,0.0589 0.1722,0.0589 0.0623,0 0.1229,-0.0207 0.1722,-0.0589 0.0493,-0.0382 0.0845,-0.0917 0.1,-0.152 l 0.3356,-0.8386 c 1.2635,-2.5281 2.7372,-4.9456 4.4055,-7.227 z"
       fill="#f8f8f8"
       stroke="#45413c"
       stroke-linecap="round"
       stroke-linejoin="round"
       id="path15" />
    <path
       d="m 57.1064,22.3365 v -2.8601 c 0,-3.0395 -1.2074,-5.9544 -3.3567,-8.1037 -2.1492,-2.14917 -5.0641,-3.35659 -8.1036,-3.35659 -3.0394,0 -5.9544,1.20742 -8.1036,3.35659 -2.1492,2.1493 -3.3566,5.0642 -3.3566,8.1037 v 2.865 c -0.6078,0 -1.1908,0.2415 -1.6206,0.6713 -0.4298,0.4298 -0.6713,1.0127 -0.6713,1.6206 0,0.6078 0.2415,1.1907 0.6713,1.6205 0.4298,0.4299 1.0128,0.6713 1.6206,0.6713 0.0475,0 0.0931,-0.0109 0.1406,-0.0138 0.4053,2.7122 1.7711,5.1887 3.8486,6.9788 2.0775,1.7901 4.7287,2.7747 7.471,2.7747 2.7424,0 5.3936,-0.9846 7.4711,-2.7747 2.0775,-1.7901 3.4432,-4.2666 3.8486,-6.9788 0.0475,0 0.0931,0.0138 0.1406,0.0138 0.6078,0 1.1907,-0.2414 1.6206,-0.6713 0.4298,-0.4298 0.6712,-1.0127 0.6712,-1.6205 0,-0.6079 -0.2414,-1.1908 -0.6712,-1.6206 -0.4299,-0.4298 -1.0128,-0.6713 -1.6206,-0.6713 z"
       fill="#bf8256"
       stroke="#45413c"
       stroke-linecap="round"
       stroke-linejoin="round"
       id="path16" />
    <path
       d="m 37.624,27.2065 c 0,0.3799 0.151,0.7443 0.4196,1.0129 0.2687,0.2687 0.633,0.4196 1.013,0.4196 0.3799,0 0.7443,-0.1509 1.0129,-0.4196 0.2687,-0.2686 0.4196,-0.633 0.4196,-1.0129 0,-0.38 -0.1509,-0.7443 -0.4196,-1.013 -0.2686,-0.2686 -0.633,-0.4196 -1.0129,-0.4196 -0.38,0 -0.7443,0.151 -1.013,0.4196 -0.2686,0.2687 -0.4196,0.633 -0.4196,1.013 z"
       fill="#bf8256"
       id="path17" />
    <path
       d="m 50.8027,27.2065 c 0,0.3799 0.151,0.7443 0.4196,1.0129 0.2687,0.2687 0.633,0.4196 1.013,0.4196 0.3799,0 0.7443,-0.1509 1.0129,-0.4196 0.2687,-0.2686 0.4196,-0.633 0.4196,-1.0129 0,-0.38 -0.1509,-0.7443 -0.4196,-1.013 -0.2686,-0.2686 -0.633,-0.4196 -1.0129,-0.4196 -0.38,0 -0.7443,0.151 -1.013,0.4196 -0.2686,0.2687 -0.4196,0.633 -0.4196,1.013 z"
       fill="#bf8256"
       id="path18" />
    <path
       d="m 51.9491,23.4823 c -0.1419,-0.3402 -0.3814,-0.6309 -0.6882,-0.8353 -0.3068,-0.2044 -0.6672,-0.3135 -1.0358,-0.3135 -0.3687,0 -0.7291,0.1091 -1.0359,0.3135 -0.3068,0.2044 -0.5463,0.4951 -0.6882,0.8353"
       stroke="#45413c"
       stroke-linecap="round"
       stroke-linejoin="round"
       id="path19" />
    <path
       d="m 42.7709,23.4822 c -0.1417,-0.3403 -0.3811,-0.631 -0.6878,-0.8356 -0.3067,-0.2045 -0.6671,-0.3136 -1.0358,-0.3136 -0.3686,0 -0.729,0.1091 -1.0358,0.3136 -0.3067,0.2046 -0.546,0.4953 -0.6878,0.8356"
       stroke="#45413c"
       stroke-linecap="round"
       stroke-linejoin="round"
       id="path20" />
    <path
       d="m 50.1485,30.932 h -9.009 c -0.0876,10e-5 -0.1741,-0.0197 -0.253,-0.0578 -0.0789,-0.0381 -0.1482,-0.0935 -0.2026,-0.1622 -0.0544,-0.0687 -0.0925,-0.1488 -0.1115,-0.2343 -0.019,-0.0856 -0.0184,-0.1743 0.0018,-0.2595 0.1582,-0.6152 0.5164,-1.1603 1.0182,-1.5497 0.5017,-0.3894 1.1187,-0.601 1.7538,-0.6016 h 4.5837 c 0.6351,6e-4 1.2521,0.2122 1.7538,0.6016 0.5018,0.3894 0.86,0.9345 1.0182,1.5497 0.02,0.0843 0.0208,0.1719 0.0025,0.2566 -0.0184,0.0847 -0.0555,0.1641 -0.1085,0.2326 -0.0531,0.0684 -0.1208,0.1241 -0.1983,0.163 -0.0774,0.0389 -0.1625,0.0599 -0.2491,0.0616 z"
       fill="#87898c"
       stroke="#45413c"
       stroke-linecap="round"
       stroke-linejoin="round"
       id="path21" />
    <path
       d="m 53.668,22.3369 h 3.4382"
       stroke="#45413c"
       stroke-linecap="round"
       stroke-linejoin="round"
       id="path22" />
    <path
       d="m 34.1855,22.3369 h 3.4383"
       stroke="#45413c"
       stroke-linecap="round"
       stroke-linejoin="round"
       id="path23" />
    <path
       d="m 37.623,22.909 c 0,0.9119 0.3623,1.7864 1.0071,2.4312 0.6448,0.6448 1.5193,1.007 2.4312,1.007 0.9119,0 1.7864,-0.3622 2.4312,-1.007 0.6448,-0.6448 1.0071,-1.5193 1.0071,-2.4312 0,-0.9119 -0.3623,-1.7865 -1.0071,-2.4313 -0.6448,-0.6448 -1.5193,-1.007 -2.4312,-1.007 -0.9119,0 -1.7864,0.3622 -2.4312,1.007 -0.6448,0.6448 -1.0071,1.5194 -1.0071,2.4313 z"
       stroke="#45413c"
       stroke-linecap="round"
       stroke-linejoin="round"
       id="path24" />
    <path
       d="m 46.7915,22.909 c 0,0.9119 0.3622,1.7864 1.007,2.4312 0.6449,0.6448 1.5194,1.007 2.4313,1.007 0.9119,0 1.7864,-0.3622 2.4312,-1.007 0.6448,-0.6448 1.007,-1.5193 1.007,-2.4312 0,-0.9119 -0.3622,-1.7865 -1.007,-2.4313 -0.6448,-0.6448 -1.5193,-1.007 -2.4312,-1.007 -0.9119,0 -1.7864,0.3622 -2.4313,1.007 -0.6448,0.6448 -1.007,1.5194 -1.007,2.4313 z"
       stroke="#45413c"
       stroke-linecap="round"
       stroke-linejoin="round"
       id="path25" />
    <path
       d="m 44.4995,22.3369 h 2.2929"
       stroke="#45413c"
       stroke-linecap="round"
       stroke-linejoin="round"
       id="path26" />
    <path
       d="M 59.8297,12.5685 C 58.8601,10.0468 57.1491,7.87826 54.9223,6.34863 52.6954,4.819 50.0573,4.00014 47.3557,4.00001 h -3.4165 c -2.3045,-0.00257 -4.5705,0.59164 -6.5772,1.72477 -2.0067,1.13313 -3.6858,2.76657 -4.8738,4.74132 -1.188,1.9747 -1.8444,4.2233 -1.9054,6.5271 -0.061,2.3037 0.4756,4.5839 1.5576,6.6187 0.1883,-0.382 0.4795,-0.7037 0.8409,-0.929 0.3614,-0.2253 0.7785,-0.3452 1.2044,-0.3461 0,0 0,-4.0115 2.8651,-4.0115 V 14.887 c 0,0 2.865,-2.2918 8.5951,-2.2918 5.7302,0 8.5952,2.2918 8.5952,2.2918 v 3.4383 c 2.8651,0 2.8651,4.0115 2.8651,4.0115 0.4258,9e-4 0.843,0.1208 1.2044,0.3461 0.3613,0.2253 0.6526,0.547 0.8409,0.929 0.8955,-1.6854 1.4193,-3.5432 1.5363,-5.4482 0.117,-1.905 -0.1756,-3.8129 -0.8581,-5.5952 z"
       fill="#87898c"
       id="path27" />
    <path
       d="m 31.4622,16.4503 c 0.9694,-2.5218 2.6803,-4.6906 4.9072,-6.2205 2.2269,-1.52978 4.8651,-2.34878 7.5668,-2.34898 h 3.4155 c 2.7017,2e-4 5.3399,0.8192 7.5668,2.34898 2.2269,1.5299 3.9378,3.6987 4.9072,6.2205 0.3507,0.9115 0.5994,1.8591 0.7415,2.8254 0.2781,-1.8965 0.1442,-3.8307 -0.3925,-5.6709 C 59.638,11.7647 58.711,10.0618 57.4568,8.61216 56.2027,7.16253 54.6509,6.00019 52.9071,5.2043 51.1634,4.40841 49.2685,3.99766 47.3517,4.00001 H 43.9392 C 42.0218,3.99717 40.1263,4.40767 38.382,5.20355 36.6376,5.99943 35.0852,7.16198 33.8307,8.612 c -1.2544,1.45 -2.1816,3.1534 -2.7183,4.9941 -0.5367,1.8408 -0.6703,3.7756 -0.3917,5.6726 0.1419,-0.9673 0.3906,-1.9159 0.7415,-2.8284 z"
       fill="#87898c"
       id="path28" />
    <path
       d="M 59.8297,12.5685 C 58.8601,10.0468 57.1491,7.87826 54.9223,6.34863 52.6954,4.819 50.0573,4.00014 47.3557,4.00001 h -3.4165 c -2.3045,-0.00257 -4.5705,0.59164 -6.5772,1.72477 -2.0067,1.13313 -3.6858,2.76657 -4.8738,4.74132 -1.188,1.9747 -1.8444,4.2233 -1.9054,6.5271 -0.061,2.3037 0.4756,4.5839 1.5576,6.6187 0.1883,-0.382 0.4795,-0.7037 0.8409,-0.929 0.3614,-0.2253 0.7785,-0.3452 1.2044,-0.3461 0,0 0,-4.0115 2.8651,-4.0115 V 14.887 c 0,0 2.865,-2.2918 8.5951,-2.2918 5.7302,0 8.5952,2.2918 8.5952,2.2918 v 3.4383 c 2.8651,0 2.8651,4.0115 2.8651,4.0115 0.4258,9e-4 0.843,0.1208 1.2044,0.3461 0.3613,0.2253 0.6526,0.547 0.8409,0.929 0.8955,-1.6854 1.4193,-3.5432 1.5363,-5.4482 0.117,-1.905 -0.1756,-3.8129 -0.8581,-5.5952 z"
       stroke="#45413c"
       stroke-linecap="round"
       stroke-linejoin="round"
       id="path29" />
    <path
       d="M 60.2732,65.4233 C 60.1836,65.2201 60.0367,65.0473 59.8505,64.926 59.6644,64.8047 59.447,64.7402 59.2248,64.7402 H 24.6382 c -0.2271,-1e-4 -0.4491,0.0674 -0.6377,0.1938 -0.1886,0.1264 -0.3354,0.306 -0.4216,0.5161 l -7.0785,17.1884 c -0.0722,0.1741 -0.1003,0.3633 -0.0818,0.5509 0.0185,0.1876 0.083,0.3677 0.1878,0.5244 0.1048,0.1566 0.2466,0.285 0.4129,0.3738 0.1663,0.0887 0.3519,0.135 0.5404,0.1349 h 49.2485 c 0.1907,0 0.3785,-0.0475 0.5462,-0.1383 0.1677,-0.0909 0.3101,-0.2221 0.4143,-0.3818 0.1043,-0.1598 0.167,-0.343 0.1825,-0.5331 0.0155,-0.1901 -0.0167,-0.3811 -0.0936,-0.5556 z"
       fill="#f0d3a8"
       stroke="#45413c"
       stroke-linecap="round"
       stroke-linejoin="round"
       id="path30" />
    <path
       d="M 35.0649,70.2266 H 21.9274 l -2.8625,7 h 15 z"
       fill="#bf8256"
       stroke="#45413c"
       stroke-linecap="round"
       stroke-linejoin="round"
       id="path31" />
    <path
       d="m 49.5649,70.2266 h 13 l 3,7 h -15 z"
       fill="#bf8256"
       stroke="#45413c"
       stroke-linecap="round"
       stroke-linejoin="round"
       id="path32" />
    <path
       d="m 33.0649,84.2266 h 18.5 l -1,-7 H 34.2554 Z"
       fill="#bf8256"
       stroke="#45413c"
       stroke-linecap="round"
       stroke-linejoin="round"
       id="path33" />
    <path
       d="m 35.0649,70.2266 h 14.5 l -1,-5.5 h -12.5 z"
       fill="#bf8256"
       stroke="#45413c"
       stroke-linecap="round"
       stroke-linejoin="round"
       id="path34" />
  </g>
</svg>
